<svg width="752" height="500" viewBox="0 0 752 500" fill="none" xmlns="http://www.w3.org/2000/svg">
<g clip-path="url(#clip0_305:1343)">
<path d="M269.741 287.615C295.512 242.281 344.671 207.472 396.71 210.825C358.325 252.567 335.942 306.542 333.521 363.199C332.666 385.053 333.991 409.448 319.481 425.812C310.453 435.994 296.653 440.925 283.084 441.96C269.515 442.994 255.949 440.542 242.561 438.101L239.313 439.098C238.077 386.965 243.97 332.95 269.741 287.615Z" fill="#F0F0F0"/>
<path d="M396.789 211.916C358.307 230.442 325.494 261.381 305.351 299.114C300.996 307.271 297.288 315.926 295.671 325.076C294.053 334.231 295.183 342.945 298.31 351.64C301.168 359.589 305.013 367.389 305.889 375.894C306.813 384.859 303.514 393.242 297.577 399.894C290.312 408.034 280.555 413.078 270.843 417.679C260.059 422.788 248.777 427.923 241.139 437.458C240.214 438.613 238.475 437.11 239.399 435.956C252.688 419.368 275.435 416.249 291.209 402.887C298.569 396.651 304.095 388.16 303.747 378.211C303.442 369.51 299.484 361.464 296.52 353.44C293.408 345.016 291.856 336.545 292.972 327.563C294.114 318.375 297.491 309.557 301.618 301.324C310.926 282.756 323.664 265.709 338.256 250.973C355.027 234.034 374.571 220.089 396.044 209.741C397.374 209.101 398.109 211.28 396.789 211.916V211.916Z" fill="white"/>
<path d="M311.25 286.503C305.35 282.189 301.176 275.919 299.473 268.812C297.77 261.705 298.649 254.224 301.952 247.705C302.625 246.388 304.703 247.372 304.029 248.69C300.942 254.755 300.124 261.724 301.724 268.339C303.323 274.954 307.234 280.779 312.752 284.763C313.95 285.63 312.441 287.365 311.25 286.503V286.503Z" fill="white"/>
<path d="M296.329 347.801C311.112 345.641 324.537 337.989 333.928 326.37C334.858 325.218 336.596 326.721 335.668 327.872C325.873 339.945 311.885 347.88 296.497 350.094C295.03 350.304 294.87 348.01 296.329 347.801V347.801Z" fill="white"/>
<path d="M356.162 236.863C358.097 239.008 360.534 240.638 363.255 241.608C365.976 242.578 368.895 242.857 371.75 242.42C373.214 242.192 373.372 244.485 371.919 244.712C368.762 245.18 365.538 244.868 362.53 243.803C359.522 242.738 356.82 240.953 354.661 238.603C354.439 238.398 354.303 238.117 354.281 237.816C354.258 237.515 354.352 237.217 354.542 236.982C354.742 236.752 355.024 236.611 355.328 236.589C355.631 236.567 355.931 236.665 356.162 236.863Z" fill="white"/>
<path d="M500.255 353.839C499.345 354.007 498.435 354.176 497.517 354.362C485.298 356.693 473.288 360.013 461.607 364.289C460.698 364.605 459.782 364.939 458.885 365.281C430.851 375.882 405.029 391.597 382.732 411.624C373.866 419.602 365.621 428.243 358.067 437.471C347.634 450.217 337.337 464.867 323.705 473.178C322.293 474.061 320.827 474.855 319.316 475.557L240.784 442.983C240.643 442.82 240.493 442.673 240.351 442.509L237.156 441.352C237.513 440.849 237.893 440.335 238.249 439.832C238.455 439.539 238.678 439.253 238.883 438.961C239.026 438.768 239.169 438.575 239.287 438.393C239.334 438.329 239.382 438.265 239.422 438.218C239.54 438.036 239.668 437.879 239.779 437.715C241.897 434.835 244.04 431.964 246.206 429.104C246.213 429.086 246.213 429.086 246.238 429.075C262.801 407.322 281.325 386.761 302.381 369.665C303.015 369.151 303.655 368.618 304.324 368.119C313.858 360.466 324.002 353.604 334.653 347.603C340.496 344.336 346.501 341.367 352.644 338.707C368.531 331.864 385.395 327.563 402.618 325.961C436.953 322.773 471.925 330.601 498.259 352.171C498.932 352.723 499.589 353.268 500.255 353.839Z" fill="#F0F0F0"/>
<path d="M499.663 354.759C457.783 346.382 412.956 351.329 374.156 369.329C365.767 373.221 357.596 377.899 350.795 384.231C343.992 390.566 339.647 398.205 336.909 407.03C334.406 415.097 332.779 423.64 328.358 430.958C323.699 438.673 316.018 443.38 307.272 445.117C296.57 447.242 285.743 445.395 275.218 443.221C263.532 440.808 251.433 438.116 239.594 441.13C238.159 441.495 237.676 439.248 239.109 438.883C259.706 433.639 279.746 444.845 300.386 443.672C310.017 443.125 319.541 439.672 325.253 431.518C330.248 424.388 331.932 415.58 334.397 407.39C336.984 398.789 340.845 391.092 347.144 384.592C353.587 377.943 361.592 372.936 369.845 368.847C388.456 359.625 408.89 353.684 429.413 350.703C453.002 347.276 477.003 347.909 500.378 352.575C501.824 352.864 501.1 355.047 499.663 354.759V354.759Z" fill="white"/>
<path d="M386.461 362.814C384.347 355.818 384.79 348.299 387.709 341.599C390.628 334.899 395.834 329.454 402.396 326.238C403.726 325.592 404.793 327.629 403.461 328.276C397.345 331.259 392.496 336.331 389.791 342.576C387.085 348.82 386.701 355.826 388.707 362.329C389.142 363.743 386.893 364.22 386.461 362.814Z" fill="white"/>
<path d="M337.64 402.772C350.744 409.948 366.071 411.921 380.564 408.298C382 407.938 382.483 410.185 381.049 410.544C365.96 414.286 350.014 412.201 336.395 404.704C335.097 403.988 336.35 402.061 337.64 402.772V402.772Z" fill="white"/>
<path d="M452.207 350.218C452.461 353.095 453.425 355.865 455.014 358.277C456.602 360.69 458.765 362.67 461.307 364.04C462.613 364.739 461.359 366.666 460.062 365.972C457.259 364.445 454.874 362.255 453.113 359.593C451.352 356.932 450.27 353.879 449.961 350.703C449.907 350.406 449.967 350.1 450.131 349.846C450.295 349.592 450.549 349.41 450.842 349.337C451.139 349.275 451.45 349.332 451.706 349.497C451.961 349.662 452.142 349.921 452.207 350.218V350.218Z" fill="white"/>
<path d="M350.656 407.577C339.658 354.399 325.91 336.669 325.91 336.669L320.658 332.596L314.342 327.69L314.373 327.06L312.875 326.55L312.523 326.277L311.946 325.834L311.853 325.934L311.658 326.137L283.077 316.422L246.819 304.106L230.028 282.282C227.294 278.727 223.773 275.855 219.743 273.889C215.712 271.923 211.281 270.917 206.797 270.95L153.174 271.347C145.924 271.4 138.956 274.164 133.64 279.095L98.3948 311.788L43.476 338.017L43.3833 337.924L42.8066 338.336L34.3212 342.393L34.6713 344.216L29.4194 348.006C29.4194 348.006 15.6717 364.503 4.67349 413.984C1.87567 426.574 0.498487 453.583 0.00139693 486.864C-0.0235719 488.547 0.286404 490.219 0.913294 491.782C1.54018 493.344 2.47148 494.767 3.65304 495.966C4.8346 497.166 6.24285 498.119 7.7959 498.769C9.34895 499.42 11.0158 499.755 12.6996 499.755H306.032V499.755H342.643C344.326 499.755 345.991 499.42 347.543 498.77C349.096 498.12 350.503 497.169 351.684 495.97C352.866 494.772 353.797 493.352 354.425 491.79C355.053 490.229 355.364 488.559 355.341 486.877C354.856 450.662 353.479 421.23 350.656 407.577Z" fill="#3F3D56"/>
<path d="M388.292 46.375C376.88 46.375 365.935 50.9085 357.865 58.9783C349.795 67.048 345.262 77.9929 345.262 89.4053C345.262 100.818 349.795 111.763 357.865 119.832C365.935 127.902 376.88 132.436 388.292 132.436H708.97C720.382 132.436 731.327 127.902 739.397 119.832C747.467 111.763 752 100.818 752 89.4053C752 77.9929 747.467 67.048 739.397 58.9783C731.327 50.9085 720.382 46.375 708.97 46.375H388.292Z" fill="#E5E5E5"/>
<path d="M388.29 55.082C379.188 55.082 370.458 58.6981 364.021 65.1346C357.585 71.5712 353.969 80.3011 353.969 89.4038C353.969 98.5065 357.585 107.236 364.021 113.673C370.458 120.11 379.188 123.726 388.29 123.726H708.968C718.071 123.726 726.801 120.11 733.238 113.673C739.674 107.236 743.29 98.5065 743.29 89.4038C743.29 80.3011 739.674 71.5712 733.238 65.1346C726.801 58.6981 718.071 55.082 708.968 55.082H388.29Z" fill="white"/>
<path d="M188.407 250.806C227.205 250.806 258.657 219.354 258.657 180.555C258.657 141.757 227.205 110.305 188.407 110.305C149.609 110.305 118.156 141.757 118.156 180.555C118.156 219.354 149.609 250.806 188.407 250.806Z" fill="#9E616A"/>
<path d="M170.437 247.368C170.137 246.707 169.838 246.044 169.539 245.379C169.654 245.383 169.768 245.399 169.883 245.402L170.437 247.368Z" fill="#2F2E41"/>
<path d="M116.201 113.501C119.754 110.666 123.907 108.058 128.449 108.205C132.992 108.351 137.599 112.454 136.658 116.901C145.002 102.127 158.283 90.7641 174.17 84.8068C190.057 78.8496 207.535 78.6786 223.535 84.3238C234.826 88.3072 245.898 96.2763 248.491 107.965C249.157 110.965 249.3 114.255 251.174 116.691C253.536 119.763 258.055 120.458 261.776 119.377C261.814 119.367 261.851 119.356 261.888 119.345C262.516 119.13 263.195 119.109 263.836 119.284C264.477 119.459 265.05 119.823 265.482 120.327C265.914 120.832 266.185 121.455 266.259 122.115C266.333 122.775 266.208 123.442 265.898 124.03L262.704 129.988C266.731 130.886 270.915 130.797 274.9 129.729C275.562 129.555 276.262 129.591 276.903 129.83C277.544 130.07 278.095 130.502 278.481 131.067C278.867 131.633 279.068 132.304 279.058 132.988C279.047 133.672 278.825 134.336 278.422 134.89C267.888 149.352 250.29 158.691 232.33 158.581C219.566 158.504 206.671 154.104 194.248 157.04C189.442 158.175 184.952 160.372 181.106 163.47C177.26 166.567 174.156 170.486 172.023 174.94C169.889 179.393 168.779 184.267 168.775 189.206C168.771 194.144 169.873 199.02 171.999 203.477C168.183 199.303 160.806 200.291 156.902 204.384C152.998 208.476 151.988 214.585 152.381 220.227C152.983 228.856 156.364 236.988 159.928 244.902C130.044 243.961 101.779 222.998 92.2649 194.645C82.7109 166.173 92.7238 132.229 116.201 113.501Z" fill="#2F2E41"/>
<path opacity="0.2" d="M69.1445 391.523L88.8482 498.728L100.671 499.757L69.1445 391.523Z" fill="black"/>
<path opacity="0.2" d="M286.187 383.438L266.483 498.649L254.66 499.756L286.187 383.438Z" fill="black"/>
<path d="M133.006 77.4203C129.228 78.9978 125.286 77.269 123.633 73.3098C121.954 69.29 123.522 65.2094 127.36 63.6066C131.199 62.0036 135.071 63.7367 136.777 67.8213C138.457 71.8446 136.906 75.7918 133.006 77.4203ZM125.769 55.6944L122.765 56.9487C122.015 57.2583 121.175 57.275 120.413 56.9955C119.651 56.716 119.022 56.1606 118.649 55.4392L118.501 55.1486C115.269 49.3195 114.899 42.2352 117.407 34.1033C119.73 26.8087 120.695 21.6784 118.754 17.0306C116.511 11.6569 111.719 9.9736 105.609 12.4121C103.239 13.4016 102.485 13.3859 100.62 15.2359C100.214 15.6432 99.7308 15.9647 99.1982 16.1811C98.6656 16.3975 98.0949 16.5045 97.5201 16.4956C96.9644 16.4891 96.4158 16.3707 95.9068 16.1475C95.3979 15.9244 94.9391 15.601 94.5578 15.1967C93.8232 14.4176 93.4117 13.3888 93.4063 12.318C93.4009 11.2472 93.802 10.2143 94.5287 9.42782C97.6634 6.14644 101.444 3.55044 105.633 1.80366C118.761 -3.67825 125.37 4.415 128.394 11.6577C131.352 18.7419 129.688 25.3148 127.014 33.8274C124.774 40.9009 124.904 46.1423 127.45 51.3538C127.633 51.7478 127.735 52.1748 127.75 52.6093C127.765 53.0438 127.691 53.4768 127.534 53.8822C127.377 54.2876 127.14 54.6571 126.837 54.9685C126.533 55.2799 126.17 55.5268 125.769 55.6944L125.769 55.6944Z" fill="#00BFA6"/>
<path d="M459.128 109.929H395.325C395.122 109.93 394.921 109.892 394.733 109.815C394.546 109.739 394.375 109.626 394.231 109.483C394.087 109.34 393.973 109.17 393.895 108.983C393.817 108.796 393.777 108.595 393.777 108.392C393.777 108.19 393.817 107.989 393.895 107.802C393.973 107.615 394.087 107.445 394.231 107.302C394.375 107.159 394.546 107.046 394.733 106.969C394.921 106.893 395.122 106.854 395.325 106.856H459.128C459.533 106.858 459.922 107.021 460.208 107.309C460.493 107.597 460.654 107.987 460.654 108.392C460.654 108.798 460.493 109.187 460.208 109.475C459.922 109.763 459.533 109.926 459.128 109.929Z" fill="#00BFA6"/>
<path d="M540.065 110.441H476.262C476.059 110.442 475.858 110.403 475.671 110.327C475.483 110.25 475.313 110.137 475.169 109.994C475.025 109.852 474.911 109.682 474.833 109.495C474.755 109.307 474.715 109.107 474.715 108.904C474.715 108.701 474.755 108.501 474.833 108.313C474.911 108.126 475.025 107.956 475.169 107.814C475.313 107.671 475.483 107.558 475.671 107.481C475.858 107.405 476.059 107.366 476.262 107.367H540.065C540.268 107.366 540.469 107.405 540.656 107.481C540.844 107.558 541.015 107.671 541.159 107.814C541.302 107.956 541.417 108.126 541.494 108.313C541.572 108.501 541.612 108.701 541.612 108.904C541.612 109.107 541.572 109.307 541.494 109.495C541.417 109.682 541.302 109.852 541.159 109.994C541.015 110.137 540.844 110.25 540.656 110.327C540.469 110.403 540.268 110.442 540.065 110.441V110.441Z" fill="#00BFA6"/>
<path d="M621.001 110.953H557.198C556.792 110.95 556.404 110.787 556.118 110.499C555.832 110.211 555.672 109.822 555.672 109.416C555.672 109.01 555.832 108.621 556.118 108.333C556.404 108.045 556.792 107.882 557.198 107.879H621.001C621.204 107.878 621.405 107.916 621.593 107.993C621.78 108.07 621.951 108.182 622.095 108.325C622.239 108.468 622.353 108.638 622.431 108.825C622.508 109.012 622.549 109.213 622.549 109.416C622.549 109.618 622.508 109.819 622.431 110.006C622.353 110.193 622.239 110.363 622.095 110.506C621.951 110.649 621.78 110.762 621.593 110.839C621.405 110.915 621.204 110.954 621.001 110.953H621.001Z" fill="#00BFA6"/>
<path d="M701.939 111.464H638.136C637.73 111.461 637.342 111.298 637.056 111.01C636.77 110.723 636.609 110.333 636.609 109.927C636.609 109.522 636.77 109.132 637.056 108.844C637.342 108.556 637.73 108.393 638.136 108.391H701.939C702.345 108.393 702.733 108.556 703.019 108.844C703.305 109.132 703.465 109.522 703.465 109.927C703.465 110.333 703.305 110.723 703.019 111.01C702.733 111.298 702.345 111.461 701.939 111.464Z" fill="#00BFA6"/>
<path d="M427.085 95.7829C433.634 95.7829 438.943 90.4738 438.943 83.9247C438.943 77.3755 433.634 72.0664 427.085 72.0664C420.536 72.0664 415.227 77.3755 415.227 83.9247C415.227 90.4738 420.536 95.7829 427.085 95.7829Z" fill="#00BFA6"/>
<path d="M508.511 95.7829C515.06 95.7829 520.369 90.4738 520.369 83.9247C520.369 77.3755 515.06 72.0664 508.511 72.0664C501.961 72.0664 496.652 77.3755 496.652 83.9247C496.652 90.4738 501.961 95.7829 508.511 95.7829Z" fill="#00BFA6"/>
<path d="M589.936 95.7829C596.486 95.7829 601.795 90.4738 601.795 83.9247C601.795 77.3755 596.486 72.0664 589.936 72.0664C583.387 72.0664 578.078 77.3755 578.078 83.9247C578.078 90.4738 583.387 95.7829 589.936 95.7829Z" fill="#00BFA6"/>
<path d="M671.362 95.7829C677.911 95.7829 683.22 90.4738 683.22 83.9247C683.22 77.3755 677.911 72.0664 671.362 72.0664C664.813 72.0664 659.504 77.3755 659.504 83.9247C659.504 90.4738 664.813 95.7829 671.362 95.7829Z" fill="#00BFA6"/>
</g>
<defs>
<clipPath id="clip0_305:1343">
<rect width="752" height="499.756" fill="white"/>
</clipPath>
</defs>
</svg>
