<svg width="800" height="566" viewBox="0 0 800 566" fill="none" xmlns="http://www.w3.org/2000/svg">
<g clip-path="url(#clip0_305:1425)">
<path d="M339.861 241.143C338.605 240.219 337.406 239.22 336.27 238.152L337.824 236.5C338.894 237.506 340.023 238.446 341.206 239.316L339.861 241.143Z" fill="#E4E4E4"/>
<path d="M330.03 230.531C328.291 227.733 326.92 224.721 325.953 221.571L328.121 220.905C329.031 223.868 330.32 226.701 331.957 229.334L330.03 230.531ZM324.288 211.87C324.265 211.334 324.254 210.798 324.254 210.26C324.254 207.504 324.551 204.756 325.141 202.064L327.356 202.55C326.802 205.082 326.522 207.667 326.522 210.26C326.522 210.766 326.533 211.271 326.554 211.775L324.288 211.87ZM330.493 193.84L328.476 192.801C329.413 190.983 330.492 189.242 331.704 187.595C332.448 186.585 333.251 185.62 334.111 184.706L335.763 186.259C334.966 187.107 334.221 188.002 333.532 188.939C332.391 190.49 331.375 192.128 330.493 193.84H330.493ZM343.042 180.68L341.971 178.681C344.899 177.112 348.061 176.027 351.335 175.465L351.719 177.701C348.685 178.221 345.755 179.227 343.042 180.68H343.042ZM369.618 180.433C366.883 179.024 363.936 178.071 360.893 177.61L361.234 175.367C364.519 175.865 367.702 176.895 370.656 178.415L369.618 180.433Z" fill="#E4E4E4"/>
<path d="M379.504 189.41C378.761 188.176 377.902 187.015 376.938 185.945L378.623 184.426C379.684 185.604 380.63 186.882 381.448 188.241L379.504 189.41Z" fill="#E4E4E4"/>
<path d="M292.542 165.279L290.715 163.935C291.622 162.701 292.579 161.481 293.558 160.309L295.299 161.763C294.35 162.9 293.422 164.083 292.542 165.279Z" fill="#E4E4E4"/>
<path d="M404.932 162.655C403.189 160.236 401.258 157.958 399.157 155.843L400.766 154.244C402.952 156.445 404.96 158.814 406.773 161.33L404.932 162.655ZM301.471 155.247L299.926 153.586C302.188 151.482 304.58 149.523 307.088 147.719L308.411 149.562C305.981 151.309 303.663 153.208 301.471 155.247ZM392.385 150.016C389.972 148.245 387.451 146.625 384.838 145.165L385.943 143.184C388.639 144.69 391.238 146.361 393.727 148.188L392.385 150.016ZM316.013 144.799L314.933 142.805C317.648 141.335 320.454 140.036 323.332 138.917L324.154 141.031C321.364 142.116 318.645 143.374 316.013 144.799V144.799ZM376.747 141.298C373.97 140.181 371.127 139.24 368.232 138.482L368.807 136.287C371.794 137.07 374.729 138.041 377.594 139.193L376.747 141.298ZM332.703 138.312L332.152 136.111C335.147 135.362 338.187 134.8 341.252 134.428L341.525 136.68C338.553 137.041 335.607 137.586 332.703 138.312V138.312ZM359.43 136.761C356.462 136.374 353.473 136.173 350.48 136.159L350.49 133.891C353.578 133.905 356.662 134.113 359.724 134.512L359.43 136.761Z" fill="#E4E4E4"/>
<path d="M411.41 174.351C410.851 172.983 410.232 171.621 409.57 170.304L411.597 169.285C412.286 170.655 412.929 172.071 413.51 173.494L411.41 174.351Z" fill="#E4E4E4"/>
<path d="M417.627 307.66L416.848 305.529C418.245 305.018 419.654 304.471 421.034 303.902L421.897 306C420.49 306.58 419.053 307.138 417.627 307.66Z" fill="#E4E4E4"/>
<path d="M382.258 314.588L382.175 312.321C385.118 312.213 388.093 311.988 391.017 311.65L391.277 313.904C388.295 314.248 385.26 314.478 382.258 314.588ZM373.213 314.561C370.207 314.434 367.174 314.185 364.197 313.822L364.472 311.57C367.39 311.926 370.363 312.17 373.309 312.295L373.213 314.561ZM400.215 312.514L399.779 310.288C402.668 309.723 405.571 309.034 408.408 308.243L409.017 310.428C406.124 311.235 403.162 311.937 400.215 312.514V312.514ZM355.269 312.373C352.324 311.774 349.368 311.05 346.483 310.22L347.11 308.04C349.938 308.853 352.835 309.563 355.721 310.15L355.269 312.373ZM337.895 307.377C335.084 306.32 332.28 305.136 329.561 303.859L330.526 301.806C333.19 303.058 335.938 304.218 338.693 305.254L337.895 307.377ZM321.533 299.693C318.932 298.209 316.35 296.599 313.859 294.908L315.134 293.031C317.576 294.69 320.107 296.268 322.657 297.722L321.533 299.693Z" fill="#E4E4E4"/>
<path d="M306.563 289.496C305.379 288.53 304.207 287.523 303.078 286.505L304.598 284.82C305.699 285.815 306.843 286.796 307.997 287.739L306.563 289.496Z" fill="#E4E4E4"/>
<path d="M243.767 60.7724L242.602 58.8259C243.904 58.0461 245.232 57.2741 246.548 56.5312L247.663 58.5065C246.364 59.2402 245.053 60.0022 243.767 60.7724Z" fill="#E4E4E4"/>
<path d="M462.135 91.7534C460.191 89.4894 458.146 87.256 456.055 85.1164L457.678 83.531C459.802 85.7057 461.881 87.9749 463.856 90.2758L462.135 91.7534ZM449.562 78.8827C447.345 76.8871 445.031 74.9328 442.684 73.075L444.092 71.2961C446.477 73.1839 448.828 75.1691 451.08 77.1968L449.562 78.8827ZM435.454 67.6993C433 65.9766 430.476 64.297 427.95 62.7079L429.159 60.7881C431.716 62.3974 434.273 64.098 436.758 65.8429L435.454 67.6993ZM420.205 58.105C417.597 56.6437 414.915 55.23 412.234 53.903L413.24 51.8701C415.956 53.2137 418.672 54.6459 421.314 56.126L420.205 58.105ZM255.625 54.2792L254.613 52.2493C257.326 50.8969 260.111 49.5973 262.889 48.3863L263.796 50.4657C261.053 51.6611 258.304 52.9442 255.625 54.2792L255.625 54.2792ZM404.058 50.1164C401.312 48.929 398.499 47.7981 395.697 46.7551L396.489 44.6292C399.327 45.6859 402.176 46.8315 404.958 48.034L404.058 50.1164ZM272.151 47.0759L271.352 44.953C274.185 43.8871 277.088 42.8788 279.979 41.9565L280.668 44.1178C277.814 45.0283 274.948 46.0237 272.151 47.0759L272.151 47.0759ZM387.174 43.8287C384.322 42.9315 381.407 42.0964 378.51 41.3465L379.078 39.1505C382.013 39.9099 384.966 40.7562 387.854 41.6652L387.174 43.8287ZM289.326 41.5983L288.747 39.4045C291.674 38.6332 294.664 37.9258 297.634 37.3026L298.1 39.5223C295.168 40.1381 292.215 40.8366 289.326 41.5983L289.326 41.5983ZM369.729 39.3133C366.802 38.714 363.816 38.1827 360.856 37.7341L361.195 35.4916C364.194 35.9457 367.219 36.484 370.184 37.0906L369.729 39.3133ZM306.968 37.8966L306.616 35.6555C309.607 35.1855 312.653 34.7856 315.67 34.4674L315.908 36.7232C312.93 37.0378 309.922 37.4325 306.968 37.8966V37.8966ZM351.912 36.6129C348.937 36.3167 345.912 36.0941 342.921 35.9505L343.03 33.685C346.06 33.8301 349.123 34.0557 352.136 34.3555L351.912 36.6129ZM324.896 36.0066L324.774 33.7419C327.802 33.5776 330.873 33.4897 333.902 33.4805L333.909 35.7489C330.919 35.7581 327.886 35.8449 324.896 36.0066L324.896 36.0066Z" fill="#E4E4E4"/>
<path d="M470.457 102.455C469.597 101.231 468.707 100.007 467.812 98.8163L469.626 97.4531C470.535 98.663 471.439 99.9073 472.313 101.152L470.457 102.455Z" fill="#E4E4E4"/>
<path d="M367.159 469.288C365.655 469.094 364.151 468.889 362.648 468.671L362.974 466.426C364.464 466.642 365.956 466.846 367.448 467.038L367.159 469.288Z" fill="#E4E4E4"/>
<path d="M353.467 467.182C350.431 466.637 347.361 466.032 344.343 465.385L344.819 463.167C347.812 463.809 350.856 464.409 353.868 464.949L353.467 467.182ZM335.285 463.283C332.286 462.533 329.264 461.724 326.304 460.876L326.928 458.696C329.864 459.536 332.86 460.339 335.835 461.082L335.285 463.283ZM317.408 458.169C314.467 457.219 311.507 456.208 308.609 455.163L309.379 453.029C312.252 454.066 315.188 455.068 318.105 456.011L317.408 458.169ZM299.917 451.864C297.054 450.721 294.169 449.513 291.341 448.272L292.252 446.195C295.057 447.425 297.919 448.624 300.758 449.757L299.917 451.864ZM282.891 444.395C280.107 443.061 277.31 441.662 274.576 440.236L275.624 438.225C278.336 439.638 281.111 441.026 283.871 442.349L282.891 444.395ZM266.404 435.801C263.727 434.289 261.03 432.706 258.387 431.096L259.567 429.159C262.189 430.756 264.864 432.326 267.52 433.825L266.404 435.801ZM250.53 426.127C247.952 424.436 245.365 422.677 242.841 420.9L244.147 419.046C246.65 420.808 249.216 422.552 251.774 424.23L250.53 426.127ZM235.325 415.415C232.859 413.542 230.404 411.598 228.028 409.635L229.473 407.886C231.825 409.829 234.255 411.754 236.697 413.608L235.325 415.415ZM220.976 403.559C218.678 401.493 216.392 399.351 214.183 397.193L215.768 395.571C217.955 397.707 220.217 399.827 222.493 401.871L220.976 403.559ZM207.662 390.549C205.544 388.299 203.446 385.974 201.425 383.638L203.141 382.154C205.141 384.466 207.218 386.768 209.314 388.995L207.662 390.549ZM195.485 376.469C193.563 374.048 191.668 371.554 189.852 369.057L191.686 367.723C193.484 370.194 195.359 372.662 197.262 375.059L195.485 376.469Z" fill="#E4E4E4"/>
<path d="M184.51 361.374C183.669 360.107 182.841 358.833 182.027 357.552L183.942 356.336C184.748 357.604 185.567 358.865 186.4 360.119L184.51 361.374Z" fill="#E4E4E4"/>
<path d="M669.75 98.1419L641.476 124.171L663.946 86.4687C646.243 54.3658 617.29 26.6211 617.29 26.6211C617.29 26.6211 557.223 84.1702 557.223 129.408C557.223 174.645 584.116 190.44 617.29 190.44C650.464 190.44 677.357 174.645 677.357 129.408C677.357 119.339 674.376 108.66 669.75 98.1419Z" fill="#F2F2F2"/>
<path d="M634.207 125.581V127.811C634.074 153.73 629.703 173.953 621.126 188.193C621.004 188.402 620.872 188.601 620.751 188.811L619.79 188.226L618.874 187.652C628.389 172.275 631.756 150.54 631.878 127.932C631.889 127.204 631.9 126.464 631.889 125.725C631.855 116.154 631.27 106.473 630.332 97.0682C630.266 96.3396 630.189 95.6 630.111 94.8604C628.809 82.4529 626.932 70.5974 625.011 60.2982C624.879 59.5696 624.735 58.8411 624.592 58.1235C621.269 40.7045 617.88 28.0873 617.108 25.2944C617.019 24.9522 616.964 24.7646 616.953 24.7205L618.002 24.4224L618.013 24.4113L619.073 24.1133C619.084 24.1575 619.271 24.7867 619.58 25.9568C620.761 30.3281 623.83 42.1947 626.844 57.8476C626.976 58.5541 627.12 59.2827 627.252 60.0112C628.82 68.3675 630.354 77.7063 631.568 87.5086C631.878 89.9703 632.153 92.3988 632.396 94.7942C632.485 95.5338 632.562 96.2733 632.628 97.0019C633.644 107.169 634.17 116.695 634.207 125.581Z" fill="white"/>
<path d="M626.841 57.8483C626.101 57.9476 625.351 58.047 624.589 58.1243C622.521 58.3372 620.443 58.4441 618.363 58.4444C609.501 58.4562 600.75 56.4796 592.753 52.6602C592.29 53.2452 591.826 53.8303 591.352 54.4263C599.764 58.5325 609.003 60.662 618.363 60.6522C620.583 60.6516 622.801 60.5336 625.009 60.2989C625.759 60.2216 626.51 60.1223 627.249 60.0119C633.354 59.1362 639.291 57.3385 644.856 54.6802C644.382 54.0731 643.918 53.477 643.465 52.8919C638.198 55.3536 632.596 57.0238 626.841 57.8483V57.8483Z" fill="white"/>
<path d="M632.395 94.7951C631.634 94.8392 630.872 94.8613 630.11 94.8613C629.879 94.8724 629.636 94.8724 629.404 94.8724C619.802 94.8725 610.342 92.5507 601.831 88.1049C593.32 83.6591 586.01 77.2211 580.524 69.3398C580.083 69.9911 579.641 70.6424 579.211 71.3047C584.928 79.2792 592.463 85.7767 601.192 90.2591C609.921 94.7415 619.592 97.0797 629.404 97.0801C629.713 97.0801 630.022 97.0801 630.331 97.0691C631.104 97.058 631.866 97.0359 632.627 97.0028C644.413 96.3991 655.776 92.4135 665.357 85.5225C665.004 84.8713 664.651 84.22 664.286 83.5687C654.975 90.3343 643.892 94.2358 632.395 94.7951V94.7951Z" fill="white"/>
<path d="M634.204 125.58C633.432 125.647 632.659 125.691 631.886 125.724C631.058 125.757 630.23 125.779 629.402 125.779C616.5 125.764 603.949 121.57 593.629 113.825C583.309 106.081 575.775 95.2012 572.156 82.8164C571.659 83.7106 571.162 84.5937 570.688 85.4878C574.766 97.8439 582.634 108.601 593.174 116.23C603.714 123.859 616.391 127.973 629.402 127.987C630.23 127.987 631.058 127.976 631.875 127.932C632.659 127.91 633.432 127.865 634.204 127.81C649.812 126.589 664.372 119.483 674.937 107.929C674.705 107.113 674.44 106.307 674.175 105.49C663.971 117.13 649.634 124.336 634.204 125.58V125.58Z" fill="white"/>
<path d="M91.0236 116.166L109.465 149.883L78.2952 118.983C42.8701 128.419 8.96094 149.825 8.96094 149.825C8.96094 149.825 50.3223 222 94.2239 232.912C138.126 243.823 159.941 221.534 167.943 189.339C175.945 157.145 167.103 127.236 123.201 116.325C113.429 113.896 102.348 114.213 91.0236 116.166Z" fill="#F2F2F2"/>
<path d="M109.075 157.282L111.239 157.819C136.361 164.2 154.933 173.32 166.683 185.079C166.857 185.247 167.018 185.423 167.193 185.592L166.393 186.383L165.615 187.133C152.987 174.19 132.706 165.68 110.796 160.109C110.091 159.923 109.376 159.734 108.656 159.566C99.3596 157.29 89.8234 155.522 80.4698 154.164C79.7467 154.053 79.0104 153.949 78.274 153.846C65.9186 152.117 53.9605 151.079 43.5021 150.459C42.7631 150.411 42.0215 150.375 41.2905 150.341C23.5843 149.364 10.5222 149.61 7.62546 149.686C7.27207 149.689 7.07665 149.697 7.03113 149.697L6.99483 148.608L6.98677 148.594L6.95312 147.494C6.99868 147.494 7.65458 147.464 8.86466 147.446C13.3918 147.354 25.6482 147.238 41.5658 148.089C42.2834 148.131 43.0251 148.168 43.7641 148.215C52.2517 148.709 61.6849 149.473 71.4907 150.659C73.9542 150.952 76.3776 151.27 78.7608 151.613C79.4999 151.705 80.2362 151.809 80.9593 151.92C91.0708 153.387 100.443 155.174 109.075 157.282Z" fill="white"/>
<path d="M41.5657 148.087C41.4837 148.829 41.3991 149.581 41.2903 150.339C40.9981 152.398 40.6006 154.44 40.0993 156.458C37.9732 165.061 33.944 173.078 28.3086 179.917C28.7645 180.508 29.2205 181.099 29.6845 181.703C35.6984 174.53 39.9935 166.078 42.2419 156.991C42.7767 154.837 43.1973 152.655 43.502 150.457C43.608 149.71 43.6926 148.957 43.7639 148.213C44.3867 142.077 44.074 135.882 42.8365 129.84C42.1328 130.154 41.4425 130.46 40.7656 130.758C41.8841 136.464 42.1538 142.303 41.5657 148.087Z" fill="white"/>
<path d="M78.7622 151.612C78.6213 152.361 78.459 153.106 78.2753 153.845C78.2301 154.073 78.1715 154.308 78.1156 154.533C75.7996 163.852 71.2646 172.473 64.8971 179.66C58.5296 186.848 50.5185 192.389 41.5469 195.811C42.0724 196.397 42.598 196.982 43.1369 197.56C52.255 193.935 60.3782 188.189 66.8336 180.8C73.2891 173.41 77.891 164.588 80.2581 155.066C80.3327 154.766 80.4072 154.466 80.4711 154.163C80.6467 153.411 80.809 152.666 80.9606 151.919C83.2176 140.336 82.0904 128.347 77.7139 117.387C76.9967 117.572 76.2794 117.758 75.5595 117.955C79.8793 128.623 80.9924 140.32 78.7622 151.612V151.612Z" fill="white"/>
<path d="M109.077 157.28C108.955 158.046 108.812 158.806 108.657 159.564C108.49 160.376 108.312 161.184 108.112 161.988C104.985 174.506 97.8877 185.675 87.8823 193.822C77.8768 201.969 65.5016 206.656 52.6094 207.181C53.3574 207.879 54.0945 208.574 54.8478 209.251C67.8227 208.273 80.1597 203.232 90.1061 194.843C100.052 186.454 107.102 175.145 110.254 162.52C110.454 161.717 110.643 160.911 110.797 160.107C110.965 159.341 111.108 158.581 111.241 157.818C113.821 142.376 110.436 126.532 101.773 113.492C100.924 113.52 100.078 113.583 99.2213 113.643C108.056 126.354 111.591 142.006 109.077 157.28V157.28Z" fill="white"/>
<path d="M142.667 330.393L135.758 323.358L144.23 310.404L158.73 286.268C158.256 285.228 158.109 284.069 158.308 282.944C158.508 281.818 159.044 280.78 159.846 279.967C160.648 279.153 161.679 278.602 162.801 278.386C163.923 278.171 165.084 278.301 166.131 278.76C167.177 279.219 168.06 279.984 168.661 280.956C169.263 281.927 169.556 283.058 169.501 284.2C169.446 285.341 169.046 286.439 168.354 287.348C167.661 288.257 166.709 288.934 165.623 289.29L153.655 315.058L142.667 330.393Z" fill="#A0616A"/>
<path d="M135.015 346.457C134.203 347.713 133.047 348.709 131.685 349.326C130.323 349.943 128.811 350.154 127.332 349.935C125.924 349.769 124.595 349.195 123.508 348.285C122.422 347.374 121.625 346.165 121.215 344.808C120.914 343.844 120.826 342.827 120.958 341.826C121.09 340.825 121.439 339.865 121.98 339.013C126.602 331.221 135.127 320.931 135.213 320.828L135.348 320.664L149.727 323.779L135.015 346.457Z" fill="#00BFA6"/>
<path d="M258.022 65.6092L256.331 66.1298L242.069 19.8062C239.88 12.6955 234.956 6.7457 228.38 3.26571C221.804 -0.214291 214.114 -0.939448 207.004 1.24977H207.004L108.861 31.4658C105.34 32.5498 102.067 34.3167 99.2291 36.6655C96.3911 39.0144 94.0435 41.8992 92.3204 45.1553C90.5972 48.4114 89.5323 51.975 89.1864 55.6427C88.8405 59.3104 89.2204 63.0103 90.3044 66.5311V66.5312L168.547 320.666C170.736 327.777 175.661 333.727 182.237 337.207C188.813 340.687 196.502 341.412 203.612 339.222H203.612L301.755 309.006C308.866 306.817 314.816 301.893 318.296 295.317C321.776 288.741 322.501 281.052 320.312 273.941V273.941L266.483 99.1037L268.174 98.5831L258.022 65.6092Z" fill="#3F3D56"/>
<path d="M210.233 7.89233L197.422 11.8365C198.456 13.0995 199.163 14.5974 199.482 16.1982C199.8 17.7989 199.72 19.4535 199.249 21.0161C198.777 22.5786 197.929 24.0013 196.778 25.1587C195.627 26.3161 194.209 27.1727 192.649 27.6531L136.425 44.9635C134.865 45.4436 133.211 45.5328 131.608 45.2231C130.006 44.9134 128.504 44.2143 127.235 43.1875C125.966 42.1607 124.97 40.8376 124.333 39.3349C123.696 37.8321 123.438 36.1958 123.583 34.57L111.617 38.2539C106.307 39.8888 101.864 43.5661 99.265 48.477C96.6662 53.3879 96.1246 59.1301 97.7595 64.4403L175.887 318.202C177.522 323.513 181.2 327.956 186.11 330.555C191.021 333.153 196.764 333.695 202.074 332.06H202.074L300.689 301.698C305.999 300.064 310.443 296.386 313.042 291.475C315.64 286.564 316.182 280.822 314.547 275.512V275.512L236.419 21.75C234.784 16.4398 231.107 11.9966 226.196 9.39779C221.285 6.79897 215.543 6.25744 210.233 7.89233Z" fill="white"/>
<path d="M607.29 561.924L377.064 479.167C371.609 477.199 367.158 473.148 364.686 467.902C362.215 462.657 361.925 456.645 363.88 451.186L483.898 117.306C485.865 111.851 489.916 107.4 495.162 104.928C500.407 102.457 506.419 102.167 511.878 104.122L742.105 186.88C747.559 188.848 752.011 192.899 754.482 198.144C756.954 203.39 757.243 209.402 755.288 214.861L635.271 548.741C633.303 554.195 629.252 558.647 624.006 561.118C618.761 563.59 612.749 563.88 607.29 561.924V561.924Z" fill="#3F3D56"/>
<path d="M612.414 548.94L381.377 465.891C379.696 465.284 378.324 464.035 377.562 462.418C376.8 460.801 376.711 458.948 377.313 457.265L498.126 121.174C498.732 119.493 499.981 118.121 501.598 117.359C503.215 116.597 505.068 116.507 506.751 117.11L737.788 200.159C739.469 200.766 740.841 202.015 741.603 203.632C742.365 205.249 742.455 207.102 741.852 208.785L621.039 544.876C620.433 546.557 619.184 547.93 617.567 548.691C615.95 549.453 614.097 549.543 612.414 548.94V548.94Z" fill="white"/>
<path d="M623.849 153.35C624.876 153.35 625.709 152.517 625.709 151.489C625.709 150.462 624.876 149.629 623.849 149.629C622.821 149.629 621.988 150.462 621.988 151.489C621.988 152.517 622.821 153.35 623.849 153.35Z" fill="white"/>
<path d="M241.417 202.349C261.039 182.727 261.039 150.914 241.417 131.292C221.796 111.67 189.982 111.67 170.361 131.292C150.739 150.914 150.739 182.727 170.361 202.349C189.982 221.971 221.796 221.971 241.417 202.349Z" fill="#00BFA6"/>
<path d="M211.151 190.802L186.281 173.931L188.453 170.731L209.042 184.7L223.923 138.148L227.604 139.325L211.151 190.802Z" fill="white"/>
<path d="M604.763 373.636C629.616 348.784 629.616 308.49 604.763 283.637C579.911 258.785 539.617 258.785 514.765 283.637C489.912 308.49 489.912 348.784 514.765 373.636C539.617 398.488 579.911 398.488 604.763 373.636Z" fill="#00BFA6"/>
<path d="M544.416 355.677L535.277 318.728L540.031 317.553L547.597 348.144L601.031 316.898L603.501 321.123L544.416 355.677Z" fill="white"/>
<path d="M146.673 518.895H155.265L159.352 485.758L146.672 485.759L146.673 518.895Z" fill="#A0616A"/>
<path d="M144.48 516.091L161.399 516.09H161.4C164.26 516.09 167.002 517.226 169.024 519.248C171.046 521.27 172.182 524.012 172.182 526.872V527.222L144.481 527.223L144.48 516.091Z" fill="#2F2E41"/>
<path d="M79.7812 515.179L88.2758 516.462L97.2709 484.309L86.1351 482.414L79.7812 515.179Z" fill="#A0616A"/>
<path d="M78.0348 512.074L94.7636 514.603L94.7643 514.603C97.5916 515.03 100.133 516.564 101.83 518.865C103.527 521.167 104.241 524.048 103.813 526.875L103.761 527.222L76.3711 523.082L78.0348 512.074Z" fill="#2F2E41"/>
<path d="M129.54 362.679L149.518 358.328L160.724 390.359L161.074 514.041L144.766 513.939L137.949 413.834L94.5031 506.333L76.9844 504.23L115.175 405.075C115.175 405.075 113.073 387.556 119.73 378.797L118.328 369.687L129.54 362.679Z" fill="#2F2E41"/>
<path d="M110.786 339.131C110.332 337.767 110.284 336.3 110.647 334.909C111.011 333.518 111.771 332.262 112.834 331.295L117.057 327.456L128.962 325.451L136.405 324.098L154.056 368.16L119.312 372.117C116.761 371.566 115.743 370.171 117.227 367.397L110.786 339.131Z" fill="#E4E4E4"/>
<path d="M152.854 331.831L151.859 322.02L166.57 317.207L192.977 307.434C193.257 306.327 193.867 305.33 194.726 304.577C195.585 303.823 196.653 303.348 197.788 303.214C198.922 303.081 200.071 303.295 201.082 303.828C202.092 304.362 202.917 305.189 203.447 306.202C203.977 307.214 204.187 308.363 204.049 309.498C203.912 310.632 203.433 311.698 202.677 312.554C201.92 313.411 200.922 314.017 199.813 314.294C198.704 314.57 197.538 314.504 196.468 314.103L171.017 326.731L152.854 331.831Z" fill="#A0616A"/>
<path d="M136.838 339.581C135.419 340.055 133.894 340.11 132.445 339.739C130.997 339.369 129.685 338.589 128.668 337.493C127.673 336.483 126.995 335.204 126.716 333.814C126.438 332.424 126.571 330.983 127.099 329.667C127.466 328.727 128.034 327.878 128.763 327.179C129.492 326.481 130.364 325.95 131.319 325.623C139.798 322.431 152.885 319.73 153.016 319.703L153.224 319.66L162.498 331.081L136.838 339.581Z" fill="#E4E4E4"/>
<path d="M123.736 321.23C130.953 321.23 136.804 315.379 136.804 308.162C136.804 300.945 130.953 295.094 123.736 295.094C116.519 295.094 110.668 300.945 110.668 308.162C110.668 315.379 116.519 321.23 123.736 321.23Z" fill="#A0616A"/>
<path d="M113.153 326.781C111.127 326.781 109.102 326.657 107.091 326.412L106.815 326.378L104.71 314.95C103.817 310.106 104.813 305.103 107.492 300.97C110.171 296.836 114.331 293.885 119.117 292.721C119.437 292.641 119.772 292.649 120.087 292.747C120.402 292.844 120.684 293.027 120.902 293.274L121.404 293.099C123.326 292.428 125.361 292.143 127.393 292.26C129.425 292.376 131.415 292.891 133.248 293.777C135.081 294.662 136.722 295.899 138.076 297.419C139.431 298.938 140.473 300.709 141.144 302.631L141.268 302.988L137.918 304.157C136.874 304.521 135.924 305.113 135.138 305.89C134.352 306.667 133.749 307.61 133.373 308.649C132.996 309.689 132.857 310.799 132.964 311.9C133.071 313 133.421 314.063 133.991 315.01L137.416 320.713L137.051 320.896C129.658 324.707 121.471 326.724 113.153 326.781V326.781Z" fill="#2F2E41"/>
<path d="M288.847 528.461H0.756144C0.555602 528.461 0.363273 528.382 0.221469 528.24C0.0796643 528.098 0 527.906 0 527.705C0 527.505 0.0796643 527.312 0.221469 527.171C0.363273 527.029 0.555602 526.949 0.756144 526.949H288.847C289.047 526.949 289.24 527.029 289.382 527.171C289.523 527.312 289.603 527.505 289.603 527.705C289.603 527.906 289.523 528.098 289.382 528.24C289.24 528.382 289.047 528.461 288.847 528.461Z" fill="#CACACA"/>
<path d="M799.245 565.512H511.155C510.954 565.512 510.762 565.433 510.62 565.291C510.478 565.149 510.398 564.957 510.398 564.756C510.398 564.556 510.478 564.363 510.62 564.221C510.762 564.08 510.954 564 511.155 564H799.245C799.446 564 799.638 564.08 799.78 564.221C799.922 564.363 800.001 564.556 800.001 564.756C800.001 564.957 799.922 565.149 799.78 565.291C799.638 565.433 799.446 565.512 799.245 565.512Z" fill="#CACACA"/>
<path d="M642.774 433.542C643.412 433.007 643.926 432.339 644.278 431.584C644.631 430.829 644.813 430.006 644.813 429.172C644.813 428.339 644.63 427.516 644.278 426.761C643.925 426.006 643.411 425.338 642.772 424.803L638.535 350.23L626.445 352.964L634.438 425.794C633.61 426.927 633.227 428.324 633.361 429.72C633.495 431.117 634.136 432.416 635.164 433.371C636.191 434.326 637.534 434.871 638.936 434.903C640.339 434.934 641.704 434.45 642.774 433.542H642.774Z" fill="#9F616A"/>
<path d="M691.864 443.251C691.207 442.739 690.669 442.09 690.29 441.348C689.91 440.606 689.698 439.79 689.668 438.957C689.638 438.125 689.791 437.296 690.116 436.528C690.441 435.761 690.93 435.075 691.549 434.517L693.084 359.84L705.265 362.134L699.914 435.205C700.782 436.308 701.215 437.69 701.132 439.09C701.049 440.491 700.455 441.812 699.463 442.804C698.47 443.795 697.149 444.389 695.749 444.471C694.348 444.553 692.966 444.119 691.864 443.251V443.251Z" fill="#9F616A"/>
<path d="M698.31 554.238L707.795 554.237L710.501 532.109L698.309 532.11L698.31 554.238Z" fill="#9F616A"/>
<path d="M695.891 551.141L714.571 551.141H714.571C717.729 551.141 720.756 552.395 722.989 554.628C725.221 556.86 726.476 559.888 726.476 563.045V563.432L695.891 563.433L695.891 551.141Z" fill="#2F2E41"/>
<path d="M639.123 554.239L648.608 554.238L651.313 517.652H639.121L639.123 554.239Z" fill="#9F616A"/>
<path d="M636.703 551.141L655.383 551.141H655.384C658.541 551.141 661.569 552.395 663.801 554.628C666.034 556.86 667.288 559.888 667.288 563.045V563.432L636.704 563.433L636.703 551.141Z" fill="#2F2E41"/>
<path d="M677.331 318.06C685.901 318.06 692.849 311.112 692.849 302.542C692.849 293.971 685.901 287.023 677.331 287.023C668.76 287.023 661.812 293.971 661.812 302.542C661.812 311.112 668.76 318.06 677.331 318.06Z" fill="#9F616A"/>
<path d="M697.055 338.348C697.055 338.348 703.952 338.922 704.527 342.371C705.102 345.819 704.527 356.165 704.527 356.165C704.527 356.165 709.125 369.959 704.527 373.407C699.929 376.856 687.859 377.43 687.859 377.43L697.055 338.348Z" fill="#E4E4E4"/>
<path d="M638.432 416.516L632.109 426.861C632.109 426.861 634.408 472.266 634.983 473.415C635.44 474.09 635.643 474.904 635.558 475.714V482.037L637.282 537.212C637.282 537.212 632.684 539.511 638.432 541.235C644.179 542.96 651.651 543.534 652.8 537.787C653.95 532.04 654.004 484.158 653.95 482.611L654.524 480.312L663.72 446.402L684.986 493.531L697.63 546.408C697.63 546.408 716.767 548.618 713.319 541.146C709.87 533.675 701.654 478.013 701.654 478.013C701.654 478.013 699.929 472.266 699.929 471.116C699.929 469.967 699.355 469.392 699.355 468.243C699.355 467.093 698.78 463.645 698.78 463.645L694.757 427.436L638.432 416.516Z" fill="#2F2E41"/>
<path d="M644.18 328.578C644.18 328.578 637.283 328.004 635.559 333.751C633.835 339.499 619.466 361.339 622.34 363.638C625.213 365.937 647.054 373.983 647.628 373.409C648.203 372.834 644.18 328.578 644.18 328.578Z" fill="#E4E4E4"/>
<path d="M695.404 292.643C694.753 290.218 693.835 287.795 691.966 286.12C690.071 284.436 687.64 283.478 685.105 283.419C682.213 281.742 678.967 280.77 675.63 280.581C672.292 280.392 668.958 280.991 665.895 282.329C665.563 281.66 665.027 281.113 664.364 280.769C664.18 282.365 663.995 283.961 663.811 285.557C663.098 285.021 662.385 284.484 661.672 283.948C661.637 284.892 661.602 285.837 661.567 286.781C660.913 286.22 660.26 285.658 659.607 285.096C659.467 288.441 662.251 291.337 665.399 292.478C668.546 293.618 671.998 293.407 675.342 293.249C676.993 293.171 678.874 293.2 679.989 294.421C681.156 295.7 680.936 297.661 680.965 299.392C681.005 301.828 683.506 300.635 684.759 302.723C685.299 303.415 685.636 304.243 685.732 305.115C685.614 305.907 685.327 306.663 684.891 307.334C683.968 309.241 682.132 315.173 683.008 317.102C684.63 316.194 686.252 315.286 687.874 314.379C687.874 314.379 698.557 304.378 695.404 292.643Z" fill="#2F2E41"/>
<path d="M692.458 371.686C692.458 371.686 703.953 342.374 703.378 340.075C702.804 337.776 688.463 328.343 688.463 328.343C687.917 328.275 687.399 328.209 686.875 328.143C686.954 327.941 687.007 327.729 687.033 327.514L687.28 325.264C687.356 324.565 687.152 323.865 686.712 323.317C686.273 322.769 685.633 322.418 684.935 322.342L666.712 320.344C666.013 320.267 665.313 320.471 664.765 320.911C664.217 321.351 663.866 321.99 663.79 322.688L663.576 324.635C662.615 324.396 662.571 324.302 662.571 324.302C662.571 324.302 646.479 326.856 642.455 328.005C638.432 329.155 641.88 372.835 641.88 372.835C641.88 372.835 639.007 413.067 637.283 414.217C635.558 415.366 637.283 414.792 635.558 419.39C635.331 419.996 638.507 416.61 639.869 417.378C648.837 422.434 685.201 434.257 694.183 433.758C697.053 403.793 691.309 394.101 691.309 394.101L692.458 371.686Z" fill="#E4E4E4"/>
</g>
<defs>
<clipPath id="clip0_305:1425">
<rect width="800" height="565.512" fill="white"/>
</clipPath>
</defs>
</svg>
