<svg width="884" height="608" viewBox="0 0 884 608" fill="none" xmlns="http://www.w3.org/2000/svg">
<g clip-path="url(#clip0_305:2610)">
<path d="M772.718 128.074H772.593L701.103 158.601L603.29 200.368C602.908 200.529 602.498 200.612 602.083 200.615C601.669 200.617 601.258 200.537 600.874 200.38L499.959 158.514L426.713 128.124L426.601 128.074H426.476C425.321 128.075 424.213 128.535 423.395 129.352C422.578 130.17 422.118 131.278 422.117 132.433V321.745C422.118 322.901 422.578 324.009 423.395 324.826C424.213 325.644 425.321 326.103 426.476 326.105H772.718C773.874 326.103 774.982 325.644 775.799 324.826C776.616 324.009 777.076 322.901 777.077 321.745V132.433C777.076 131.278 776.616 130.17 775.799 129.352C774.982 128.535 773.874 128.075 772.718 128.074V128.074Z" fill="white"/>
<path d="M773.03 129.319C772.903 129.319 772.778 129.28 772.674 129.207L600.451 9.26581C599.927 8.90251 599.304 8.70835 598.666 8.70943C598.028 8.71052 597.406 8.9068 596.883 9.27189L425.9 129.206C425.765 129.3 425.598 129.337 425.436 129.308C425.274 129.279 425.129 129.187 425.035 129.052C424.94 128.917 424.903 128.751 424.931 128.588C424.959 128.426 425.051 128.281 425.185 128.186L596.168 8.25208C596.9 7.74104 597.771 7.46632 598.664 7.46485C599.557 7.46338 600.429 7.73524 601.163 8.24387L773.386 128.185C773.495 128.261 773.577 128.369 773.619 128.495C773.662 128.62 773.664 128.756 773.624 128.883C773.584 129.009 773.505 129.12 773.398 129.198C773.291 129.277 773.162 129.319 773.03 129.319H773.03Z" fill="#3F3D56"/>
<path d="M435.672 133.57L598.836 12.6445L763.239 142.174L607.243 234.65L522.551 215.346L435.672 133.57Z" fill="#E6E6E6"/>
<path d="M529.699 291.77H449.092C448.093 291.772 447.135 291.376 446.427 290.671C445.72 289.966 445.322 289.009 445.32 288.01C445.319 287.011 445.714 286.053 446.419 285.345C447.125 284.638 448.082 284.24 449.081 284.238H529.699C530.698 284.237 531.656 284.632 532.364 285.337C533.071 286.043 533.469 287 533.471 287.999C533.472 288.997 533.077 289.956 532.372 290.663C531.666 291.37 530.709 291.769 529.71 291.77H529.699Z" fill="#00BFA6"/>
<path d="M478.009 275.579H449.089C448.091 275.58 447.133 275.184 446.426 274.479C445.72 273.774 445.322 272.817 445.32 271.818C445.319 270.82 445.714 269.862 446.418 269.155C447.123 268.448 448.08 268.049 449.078 268.047H478.009C478.504 268.046 478.994 268.142 479.452 268.331C479.909 268.519 480.325 268.796 480.675 269.145C481.026 269.494 481.304 269.909 481.494 270.366C481.684 270.823 481.783 271.312 481.783 271.807C481.784 272.302 481.687 272.792 481.499 273.249C481.31 273.707 481.033 274.122 480.683 274.473C480.334 274.823 479.919 275.101 479.462 275.291C479.005 275.48 478.515 275.578 478.02 275.579H478.009Z" fill="#00BFA6"/>
<path d="M601.13 200.925C600.517 200.926 599.911 200.807 599.343 200.575L498.715 158.821V28.1248C498.716 26.9691 499.176 25.8611 499.993 25.0439C500.81 24.2267 501.918 23.767 503.074 23.7656H696.122C697.278 23.767 698.386 24.2267 699.203 25.0439C700.021 25.8611 700.48 26.9691 700.482 28.1248V158.912L700.292 158.993L602.971 200.554C602.388 200.799 601.762 200.925 601.13 200.925V200.925Z" fill="white"/>
<path d="M601.129 201.235C600.476 201.236 599.829 201.109 599.224 200.862L498.402 159.028V28.1236C498.404 26.8854 498.896 25.6982 499.772 24.8226C500.647 23.947 501.835 23.4545 503.073 23.4531H696.121C697.36 23.4545 698.547 23.947 699.422 24.8226C700.298 25.6982 700.79 26.8854 700.792 28.1236V159.117L603.092 200.84C602.471 201.101 601.803 201.235 601.129 201.235V201.235ZM499.648 158.196L599.699 199.711C600.632 200.089 601.677 200.083 602.606 199.693L699.546 158.295V28.1236C699.545 27.2156 699.184 26.3451 698.542 25.703C697.9 25.0609 697.029 24.6997 696.121 24.6987H503.073C502.165 24.6997 501.294 25.0609 500.652 25.703C500.01 26.3451 499.649 27.2156 499.648 28.1236L499.648 158.196Z" fill="#3F3D56"/>
<path d="M771.785 128.074H771.66L700.17 158.601L602.357 200.368C601.974 200.529 601.564 200.612 601.15 200.615C600.735 200.617 600.324 200.537 599.94 200.38L499.026 158.514L425.779 128.124L425.667 128.074H425.543C424.387 128.075 423.279 128.535 422.462 129.352C421.645 130.17 421.185 131.278 421.184 132.433V321.745C421.185 322.901 421.645 324.009 422.462 324.826C423.279 325.644 424.387 326.103 425.543 326.105H771.785C772.94 326.103 774.048 325.644 774.865 324.826C775.683 324.009 776.142 322.901 776.144 321.745V132.433C776.142 131.278 775.683 130.17 774.865 129.352C774.048 128.535 772.94 128.075 771.785 128.074V128.074ZM774.898 321.745C774.898 322.571 774.57 323.363 773.986 323.947C773.402 324.531 772.61 324.859 771.785 324.859H425.543C424.717 324.859 423.925 324.531 423.341 323.947C422.758 323.363 422.429 322.571 422.429 321.745V132.433C422.43 131.628 422.742 130.855 423.301 130.274C423.859 129.694 424.62 129.352 425.424 129.32L499.026 159.859L599.461 201.532C600.548 201.975 601.766 201.968 602.849 201.514L700.17 159.952L771.909 129.32C772.712 129.354 773.471 129.697 774.028 130.277C774.585 130.857 774.896 131.629 774.898 132.433V321.745Z" fill="#3F3D56"/>
<path d="M585.464 72.62H516.963C515.643 72.6182 514.378 72.0925 513.445 71.1584C512.512 70.2243 511.988 68.9582 511.988 67.6382C511.988 66.3181 512.512 65.052 513.445 64.1179C514.378 63.1838 515.643 62.6581 516.963 62.6562H585.464C586.784 62.6581 588.05 63.1838 588.982 64.1179C589.915 65.052 590.439 66.3181 590.439 67.6382C590.439 68.9582 589.915 70.2243 588.982 71.1584C588.05 72.0925 586.784 72.6182 585.464 72.62V72.62Z" fill="#00BFA6"/>
<path d="M549.967 51.4442H516.962C515.641 51.4442 514.374 50.9194 513.44 49.9851C512.505 49.0508 511.98 47.7836 511.98 46.4624C511.98 45.1411 512.505 43.8739 513.44 42.9396C514.374 42.0053 515.641 41.4805 516.962 41.4805H549.967C551.289 41.4805 552.556 42.0053 553.49 42.9396C554.424 43.8739 554.949 45.1411 554.949 46.4624C554.949 47.7836 554.424 49.0508 553.49 49.9851C552.556 50.9194 551.289 51.4442 549.967 51.4442V51.4442Z" fill="#00BFA6"/>
<path d="M650.829 122.436H546.209C544.889 122.435 543.624 121.909 542.691 120.975C541.758 120.041 541.234 118.775 541.234 117.455C541.234 116.135 541.758 114.868 542.691 113.934C543.624 113 544.889 112.475 546.209 112.473H650.829C652.149 112.475 653.414 113 654.347 113.934C655.28 114.868 655.804 116.135 655.804 117.455C655.804 118.775 655.28 120.041 654.347 120.975C653.414 121.909 652.149 122.435 650.829 122.436V122.436Z" fill="#CCCCCC"/>
<path d="M650.832 145.479H546.212C544.891 145.479 543.624 144.955 542.69 144.02C541.755 143.086 541.23 141.819 541.23 140.498C541.23 139.176 541.755 137.909 542.69 136.975C543.624 136.041 544.891 135.516 546.212 135.516H650.832C652.153 135.516 653.421 136.041 654.355 136.975C655.289 137.909 655.814 139.176 655.814 140.498C655.814 141.819 655.289 143.086 654.355 144.02C653.421 144.955 652.153 145.479 650.832 145.479V145.479Z" fill="#CCCCCC"/>
<path d="M769.852 177.251C796.014 177.251 817.223 156.042 817.223 129.879C817.223 103.717 796.014 82.5078 769.852 82.5078C743.689 82.5078 722.48 103.717 722.48 129.879C722.48 156.042 743.689 177.251 769.852 177.251Z" fill="#00BFA6"/>
<path d="M765.338 149.875L751.16 131.644L759.405 125.231L766.118 133.863L788.797 109.922L796.381 117.107L765.338 149.875Z" fill="white"/>
<path d="M239.766 409.852C238.94 408.636 238.39 407.254 238.156 405.803C237.922 404.351 238.008 402.866 238.41 401.452C238.812 400.038 239.519 398.729 240.481 397.618C241.444 396.506 242.638 395.62 243.98 395.02L240.899 359.418L257.225 368.266L257.648 400.718C258.506 403.039 258.483 405.595 257.583 407.901C256.683 410.206 254.968 412.102 252.764 413.228C250.56 414.354 248.019 414.632 245.624 414.01C243.228 413.388 241.144 411.908 239.766 409.852H239.766Z" fill="#9F616A"/>
<path d="M242.858 387.33L242.725 386.994L224.713 341.491L221.855 255.238L222.335 255.204C225.853 254.953 229.385 255.407 232.724 256.54C236.063 257.673 239.142 259.461 241.781 261.801C244.419 264.14 246.563 266.983 248.087 270.163C249.611 273.343 250.485 276.795 250.656 280.317L253.298 326.691L260.786 386.334L242.858 387.33Z" fill="#E5E5E5"/>
<path d="M127.801 577.504L138.155 584.069L168.402 547.254L153.12 537.566L127.801 577.504Z" fill="#9F616A"/>
<path d="M127.303 572.449L147.695 585.377L147.695 585.377C151.142 587.562 153.579 591.027 154.471 595.009C155.362 598.991 154.636 603.164 152.451 606.611L152.184 607.033L118.797 585.867L127.303 572.449Z" fill="#2F2E41"/>
<path d="M225.693 595.148L237.953 595.147L243.785 547.859L225.691 547.86L225.693 595.148Z" fill="#9F616A"/>
<path d="M222.566 591.146L246.71 591.145H246.711C250.792 591.145 254.706 592.766 257.591 595.651C260.476 598.537 262.098 602.45 262.098 606.531V607.031L222.567 607.032L222.566 591.146Z" fill="#2F2E41"/>
<path d="M191.004 397.015L219.866 570.617C219.866 570.617 214.188 584.812 222.705 586.704C231.222 588.597 250.148 584.812 250.148 584.812C250.148 584.812 255.826 570.617 247.309 568.725L231.222 387.336L191.004 397.015Z" fill="#2F2E41"/>
<path d="M208.037 400.112L188.042 481.286L137.064 555.306C137.064 555.306 118.138 557.199 128.547 567.608C138.957 578.018 143.688 578.964 143.688 578.964C143.688 578.964 159.776 577.071 158.829 569.501L221.503 495.73L250.621 397.273L208.037 400.112Z" fill="#2F2E41"/>
<path d="M190.587 407.26L185.758 379.702C178.486 372.102 192.226 353.311 193.758 351.27L192.859 339.584C192.093 339.453 191.392 339.071 190.866 338.499C186.355 333.898 186.658 315.748 186.674 314.978L181.695 263.192L194.081 255.967L225.403 254.957L240.699 268.214L255.432 403.565L254.907 403.595L190.587 407.26Z" fill="#E5E5E5"/>
<path d="M201.429 416.927C200.166 416.173 199.084 415.152 198.259 413.936C197.434 412.719 196.886 411.336 196.653 409.885C196.42 408.433 196.508 406.948 196.911 405.534C197.314 404.121 198.022 402.812 198.986 401.702L181.16 370.73L199.696 371.858L213.781 401.096C215.54 402.838 216.598 405.164 216.755 407.634C216.913 410.105 216.159 412.547 214.636 414.498C213.114 416.449 210.928 417.774 208.494 418.222C206.06 418.669 203.546 418.209 201.429 416.927H201.429Z" fill="#9F616A"/>
<path d="M185.643 387.966L170.266 352.322L167.696 279.511C167.608 277.119 168.178 274.748 169.343 272.657C170.507 270.565 172.223 268.833 174.303 267.648L192.042 256.809L195.869 333.353L207.316 379.1L185.643 387.966Z" fill="#E5E5E5"/>
<path d="M213.239 248.052C225.394 248.052 235.247 238.198 235.247 226.044C235.247 213.889 225.394 204.035 213.239 204.035C201.084 204.035 191.23 213.889 191.23 226.044C191.23 238.198 201.084 248.052 213.239 248.052Z" fill="#9F616A"/>
<path d="M221.195 193.546C199.03 187.154 192.738 205.525 192.738 205.525C182.054 212.613 188.743 221.5 188.743 221.5C186.048 222.098 191.438 237.874 193.235 237.475C194.194 237.262 196.66 240.206 198.752 242.997C199.469 242.996 200.185 243.065 200.888 243.203L196.83 228.19C196.83 228.19 210.509 226.094 214.703 219.505C218.715 213.201 231.924 211.21 235.683 215.421C235.905 214.21 236.361 213.054 237.024 212.017C237.537 211.229 238.208 210.557 238.995 210.041C235.671 195.917 221.195 193.546 221.195 193.546Z" fill="#2F2E41"/>
<path opacity="0.2" d="M196.224 305.466L194.996 349.277L210.238 381.403L196.224 304.301" fill="black"/>
<path d="M382 607.465H1C0.734784 607.465 0.480429 607.359 0.292892 607.172C0.105356 606.984 0 606.73 0 606.465C0 606.2 0.105356 605.945 0.292892 605.758C0.480429 605.57 0.734784 605.465 1 605.465H382C382.265 605.465 382.52 605.57 382.707 605.758C382.895 605.945 383 606.2 383 606.465C383 606.73 382.895 606.984 382.707 607.172C382.52 607.359 382.265 607.465 382 607.465Z" fill="#3F3D56"/>
<path d="M329.336 47.2782C329.013 47.087 328.642 46.9909 328.267 47.0007C327.891 47.0105 327.526 47.1259 327.213 47.3338C326.9 47.5416 326.652 47.8333 326.498 48.1756C326.343 48.5179 326.288 48.8969 326.339 49.269L327.882 60.5924C327.904 60.7593 327.892 60.9288 327.849 61.0914C327.8 61.2515 327.72 61.3999 327.611 61.5275L318.965 71.7711C318.676 72.1008 318.506 72.5181 318.483 72.9559C318.46 73.3936 318.585 73.8264 318.838 74.1846L318.847 74.1978C319.089 74.5599 319.445 74.8306 319.858 74.9669C320.272 75.1032 320.719 75.0972 321.129 74.9498L327.374 72.8303C327.581 72.7618 327.802 72.7509 328.015 72.7988C328.228 72.8466 328.424 72.9514 328.581 73.102C328.699 73.211 328.793 73.3431 328.857 73.4902C328.921 73.6372 328.954 73.7959 328.954 73.9563L329.198 96.2052C329.2 96.5273 329.281 96.8439 329.434 97.1277C329.586 97.4115 329.805 97.654 330.072 97.8342C330.338 98.0139 330.643 98.1271 330.962 98.1643C331.281 98.2014 331.604 98.1614 331.904 98.0476L378.512 80.2231C378.863 80.0894 379.17 79.8592 379.396 79.559C379.622 79.2588 379.76 78.9008 379.792 78.5261C379.824 78.1515 379.749 77.7754 379.577 77.4411C379.405 77.1069 379.142 76.828 378.818 76.6366L378.184 76.2597L329.336 47.2782V47.2782ZM327.128 49.1602C327.098 48.9368 327.131 48.7094 327.224 48.5041C327.318 48.2988 327.467 48.1239 327.655 47.9994C327.843 47.8749 328.062 47.806 328.288 47.8003C328.513 47.7947 328.735 47.8527 328.929 47.9676L377.761 76.9405L378.411 77.3259C378.604 77.4413 378.761 77.6087 378.864 77.8089C378.966 78.0092 379.011 78.2342 378.992 78.4584C378.973 78.6826 378.891 78.8969 378.756 79.077C378.621 79.2571 378.438 79.3956 378.229 79.4769L331.621 97.3014C331.441 97.37 331.247 97.394 331.056 97.3715C330.864 97.349 330.681 97.2805 330.521 97.172C330.362 97.0635 330.231 96.918 330.14 96.7481C330.049 96.5782 330 96.3887 329.997 96.1959L329.753 73.9472C329.754 73.727 329.716 73.5085 329.642 73.3012L377.092 78.7531C377.277 78.7762 377.464 78.7339 377.621 78.6336C377.779 78.5333 377.896 78.3811 377.953 78.2036C378.01 78.026 378.003 77.8341 377.933 77.6611C377.863 77.4881 377.735 77.3449 377.571 77.2562C377.532 77.234 377.49 77.2158 377.446 77.2018L328.686 60.9253C328.697 60.778 328.693 60.6298 328.671 60.4835L327.128 49.1603L327.128 49.1602Z" fill="#F1F1F1"/>
<path d="M329.336 47.2782C329.013 47.087 328.642 46.9909 328.267 47.0007C327.891 47.0105 327.526 47.1259 327.213 47.3338C326.9 47.5416 326.652 47.8333 326.498 48.1756C326.343 48.5179 326.288 48.8969 326.339 49.269L327.882 60.5924C327.904 60.7593 327.892 60.9288 327.849 61.0914C327.8 61.2515 327.72 61.3999 327.611 61.5275L318.965 71.7711C318.676 72.1008 318.506 72.5181 318.483 72.9559C318.46 73.3936 318.585 73.8264 318.838 74.1846L318.847 74.1978C319.089 74.5599 319.445 74.8306 319.858 74.9669C320.272 75.1032 320.719 75.0972 321.129 74.9498L327.374 72.8303C327.581 72.7618 327.802 72.7509 328.015 72.7988C328.228 72.8466 328.424 72.9514 328.581 73.102C328.699 73.211 328.793 73.3431 328.857 73.4902C328.921 73.6372 328.954 73.7959 328.954 73.9563L329.198 96.2052C329.2 96.5273 329.281 96.8439 329.434 97.1277C329.586 97.4115 329.805 97.654 330.072 97.8342C330.338 98.0139 330.643 98.1271 330.962 98.1643C331.281 98.2014 331.604 98.1614 331.904 98.0476L378.512 80.2231C378.863 80.0894 379.17 79.8592 379.396 79.559C379.622 79.2588 379.76 78.9008 379.792 78.5261C379.824 78.1515 379.749 77.7754 379.577 77.4411C379.405 77.1069 379.142 76.828 378.818 76.6366L378.184 76.2597L329.336 47.2782V47.2782ZM327.128 49.1602C327.098 48.9368 327.131 48.7094 327.224 48.5041C327.318 48.2988 327.467 48.1239 327.655 47.9994C327.843 47.8749 328.062 47.806 328.288 47.8003C328.513 47.7947 328.735 47.8527 328.929 47.9676L377.761 76.9405L378.411 77.3259C378.604 77.4413 378.761 77.6087 378.864 77.8089C378.966 78.0092 379.011 78.2342 378.992 78.4584C378.973 78.6826 378.891 78.8969 378.756 79.077C378.621 79.2571 378.438 79.3956 378.229 79.4769L331.621 97.3014C331.441 97.37 331.247 97.394 331.056 97.3715C330.864 97.3489 330.681 97.2805 330.521 97.172C330.362 97.0634 330.231 96.918 330.14 96.7481C330.049 96.5782 330 96.3887 329.997 96.1959L329.753 73.9471C329.753 73.727 329.716 73.5084 329.642 73.3011C329.537 73.0026 329.361 72.7341 329.13 72.5189C329.098 72.4873 329.063 72.458 329.028 72.4286L329.026 72.4254C328.764 72.2092 328.452 72.0636 328.118 72.0022C327.784 71.9408 327.44 71.9658 327.118 72.0748L320.871 74.1965C320.624 74.2859 320.355 74.2895 320.106 74.2066C319.858 74.1238 319.645 73.9595 319.501 73.7403L319.497 73.7337C319.343 73.5196 319.268 73.2597 319.282 72.9967C319.296 72.7337 319.399 72.4834 319.574 72.2868L328.221 62.0433C328.313 61.936 328.393 61.8187 328.459 61.6935L328.463 61.6912C328.527 61.5714 328.578 61.445 328.615 61.3144C328.652 61.1876 328.676 61.0572 328.686 60.9254C328.698 60.7781 328.693 60.6299 328.671 60.4836L327.128 49.1603V49.1602Z" fill="#E5E5E5"/>
<path d="M328.687 60.9256L377.448 77.202C377.491 77.216 377.533 77.2342 377.573 77.2564C377.737 77.3451 377.864 77.4883 377.934 77.6613C378.004 77.8343 378.011 78.0262 377.954 78.2038C377.897 78.3814 377.78 78.5335 377.622 78.6338C377.465 78.7342 377.278 78.7764 377.093 78.7533L329.643 73.3013L328.805 73.2059L328.897 72.4134L329.027 72.4256L329.03 72.4288L377.184 77.9576L328.464 61.6914L328.461 61.6937L328.25 61.621L328.503 60.8633L328.687 60.9256Z" fill="#E5E5E5"/>
<path d="M873.111 0.278196L824.264 29.2597L823.629 29.6366C823.306 29.828 823.043 30.1069 822.87 30.4412C822.698 30.7754 822.624 31.1515 822.656 31.5262C822.688 31.9008 822.825 32.2588 823.051 32.559C823.278 32.8592 823.584 33.0894 823.936 33.2231L870.543 51.0476C870.843 51.1614 871.166 51.2014 871.485 51.1643C871.804 51.1272 872.109 51.0139 872.375 50.8342C872.642 50.654 872.861 50.4116 873.014 50.1277C873.166 49.8439 873.247 49.5273 873.249 49.2052L873.494 26.9563C873.493 26.7959 873.526 26.6372 873.59 26.4902C873.654 26.3432 873.748 26.211 873.866 26.102C874.024 25.9514 874.219 25.8466 874.432 25.7988C874.645 25.7509 874.867 25.7618 875.074 25.8303L881.318 27.9498C881.728 28.0972 882.175 28.1032 882.589 27.9669C883.003 27.8307 883.359 27.5599 883.601 27.1978L883.61 27.1846C883.862 26.8264 883.987 26.3936 883.964 25.9559C883.941 25.5181 883.771 25.1008 883.483 24.7711L874.836 14.5275C874.728 14.3999 874.647 14.2515 874.599 14.0914C874.555 13.9288 874.544 13.7593 874.565 13.5924L876.109 2.26904C876.16 1.89686 876.104 1.51791 875.95 1.17563C875.795 0.833339 875.547 0.541576 875.234 0.333769C874.921 0.125962 874.556 0.0105157 874.181 0.000684859C873.805 -0.00914596 873.434 0.0870317 873.111 0.278181V0.278196ZM875.32 2.16029L873.776 13.4836C873.755 13.6298 873.75 13.778 873.762 13.9254L825.001 30.2017C824.957 30.2157 824.916 30.234 824.876 30.2561C824.712 30.3448 824.584 30.4881 824.514 30.6611C824.445 30.8341 824.438 31.026 824.495 31.2035C824.552 31.3811 824.669 31.5332 824.826 31.6336C824.983 31.7339 825.17 31.7762 825.355 31.7531L872.806 26.3011C872.732 26.5085 872.694 26.727 872.694 26.9471L872.45 49.1959C872.448 49.3887 872.399 49.5782 872.308 49.7481C872.216 49.918 872.085 50.0634 871.926 50.172C871.767 50.2805 871.583 50.3489 871.392 50.3715C871.2 50.394 871.006 50.37 870.826 50.3014L824.219 32.4769C824.009 32.3956 823.826 32.2571 823.691 32.077C823.556 31.8969 823.475 31.6826 823.456 31.4584C823.437 31.2342 823.481 31.0092 823.584 30.8089C823.686 30.6087 823.843 30.4413 824.036 30.3259L824.686 29.9405L873.518 0.967543C873.712 0.85263 873.934 0.794675 874.16 0.800306C874.385 0.805937 874.604 0.874931 874.792 0.999388C874.981 1.12384 875.13 1.29873 875.223 1.50403C875.316 1.70933 875.35 1.93675 875.32 2.16023V2.16029Z" fill="#F1F1F1"/>
<path d="M873.111 0.278196L824.264 29.2597L823.629 29.6366C823.306 29.828 823.043 30.1069 822.87 30.4412C822.698 30.7754 822.624 31.1515 822.656 31.5262C822.688 31.9008 822.825 32.2588 823.051 32.559C823.278 32.8592 823.584 33.0894 823.936 33.2231L870.543 51.0476C870.843 51.1614 871.166 51.2014 871.485 51.1643C871.804 51.1272 872.109 51.0139 872.375 50.8342C872.642 50.654 872.861 50.4116 873.014 50.1277C873.166 49.8439 873.247 49.5273 873.249 49.2052L873.494 26.9563C873.493 26.7959 873.526 26.6372 873.59 26.4902C873.654 26.3432 873.748 26.211 873.866 26.102C874.024 25.9514 874.219 25.8466 874.432 25.7988C874.645 25.7509 874.867 25.7618 875.074 25.8303L881.318 27.9498C881.728 28.0972 882.175 28.1032 882.589 27.9669C883.003 27.8307 883.359 27.5599 883.601 27.1978L883.61 27.1846C883.862 26.8264 883.987 26.3936 883.964 25.9559C883.941 25.5181 883.771 25.1008 883.483 24.7711L874.836 14.5275C874.728 14.3999 874.647 14.2515 874.599 14.0914C874.555 13.9288 874.544 13.7593 874.565 13.5924L876.109 2.26904C876.16 1.89686 876.104 1.51791 875.95 1.17563C875.795 0.833339 875.547 0.541576 875.234 0.333769C874.921 0.125962 874.556 0.0105157 874.181 0.000684859C873.805 -0.00914596 873.434 0.0870317 873.111 0.278181V0.278196ZM875.32 2.16029L873.776 13.4836C873.755 13.6299 873.75 13.778 873.762 13.9254C873.771 14.0572 873.795 14.1876 873.833 14.3144C873.87 14.445 873.921 14.5714 873.984 14.6912L873.988 14.6935C874.054 14.8187 874.134 14.936 874.227 15.0433L882.873 25.2867C883.049 25.4833 883.152 25.7337 883.166 25.9967C883.18 26.2597 883.104 26.5196 882.951 26.7337L882.946 26.7402C882.803 26.9595 882.589 27.1238 882.341 27.2066C882.092 27.2895 881.823 27.2859 881.577 27.1965L875.329 25.0748C875.008 24.9658 874.663 24.9408 874.329 25.0022C873.996 25.0636 873.683 25.2092 873.421 25.4254L873.419 25.4286C873.384 25.458 873.349 25.4873 873.318 25.5188C873.086 25.7341 872.91 26.0026 872.806 26.3011C872.732 26.5084 872.694 26.727 872.694 26.9471L872.45 49.1959C872.448 49.3887 872.399 49.5781 872.307 49.7481C872.216 49.918 872.085 50.0634 871.926 50.1719C871.767 50.2805 871.583 50.3489 871.392 50.3714C871.2 50.394 871.006 50.37 870.826 50.3014L824.219 32.4769C824.009 32.3956 823.826 32.2571 823.691 32.077C823.556 31.8969 823.475 31.6826 823.456 31.4584C823.437 31.2342 823.481 31.0092 823.584 30.8089C823.686 30.6087 823.843 30.4413 824.036 30.3259L824.686 29.9405L873.518 0.967558C873.712 0.852645 873.934 0.794691 874.16 0.800322C874.385 0.805953 874.604 0.874946 874.792 0.999403C874.98 1.12386 875.13 1.29874 875.223 1.50404C875.316 1.70934 875.35 1.93676 875.32 2.16025V2.16029Z" fill="#E5E5E5"/>
<path d="M873.946 13.8633L874.199 14.621L873.988 14.6937L873.985 14.6914L825.265 30.9576L873.419 25.4288L873.422 25.4256L873.551 25.4134L873.644 26.2059L872.806 26.3013L825.356 31.7533C825.171 31.7764 824.984 31.7342 824.826 31.6338C824.669 31.5335 824.552 31.3814 824.495 31.2038C824.438 31.0262 824.445 30.8343 824.515 30.6613C824.584 30.4883 824.712 30.3451 824.876 30.2564C824.916 30.2342 824.958 30.216 825.001 30.202L873.762 13.9256L873.946 13.8633Z" fill="#E5E5E5"/>
<path d="M426.127 435.352C425.793 435.523 425.513 435.785 425.321 436.108C425.129 436.431 425.031 436.801 425.04 437.176C425.048 437.552 425.162 437.918 425.369 438.231C425.575 438.545 425.866 438.794 426.208 438.95L436.604 443.697C436.756 443.768 436.893 443.868 437.007 443.992C437.117 444.118 437.199 444.266 437.249 444.425L441.286 457.208C441.411 457.628 441.673 457.995 442.03 458.248C442.388 458.502 442.82 458.628 443.258 458.605L443.274 458.605C443.71 458.594 444.129 458.437 444.465 458.161C444.801 457.884 445.035 457.503 445.13 457.077L446.676 450.667C446.728 450.455 446.838 450.262 446.992 450.108C447.146 449.954 447.339 449.844 447.551 449.791C447.706 449.75 447.867 449.741 448.026 449.766C448.184 449.79 448.336 449.847 448.472 449.933L467.407 461.617C467.681 461.787 467.992 461.888 468.313 461.911C468.634 461.934 468.956 461.878 469.251 461.749C469.545 461.62 469.804 461.422 470.006 461.173C470.208 460.923 470.347 460.629 470.411 460.314L480.253 411.395C480.328 411.027 480.297 410.644 480.165 410.293C480.032 409.941 479.803 409.634 479.503 409.406C479.204 409.179 478.846 409.041 478.471 409.008C478.097 408.975 477.721 409.048 477.386 409.219L476.728 409.554L426.127 435.352V435.352ZM426.538 438.225C426.333 438.131 426.158 437.981 426.035 437.792C425.911 437.604 425.843 437.384 425.838 437.159C425.834 436.933 425.892 436.711 426.008 436.518C426.124 436.324 426.292 436.167 426.493 436.065L477.078 410.275L477.751 409.932C477.952 409.83 478.177 409.787 478.401 409.807C478.625 409.828 478.839 409.91 479.018 410.046C479.198 410.182 479.335 410.366 479.415 410.576C479.495 410.786 479.515 411.015 479.471 411.235L469.629 460.154C469.591 460.343 469.507 460.52 469.386 460.67C469.264 460.82 469.108 460.938 468.932 461.015C468.755 461.092 468.562 461.125 468.369 461.111C468.177 461.097 467.991 461.037 467.827 460.936L448.891 449.252C448.705 449.135 448.5 449.05 448.285 449.002L478.252 411.809C478.37 411.665 478.435 411.484 478.434 411.298C478.433 411.111 478.367 410.931 478.248 410.788C478.128 410.645 477.962 410.549 477.779 410.515C477.595 410.481 477.406 410.513 477.243 410.604C477.203 410.626 477.165 410.651 477.13 410.681L437.314 443.196C437.196 443.107 437.068 443.032 436.933 442.972L426.538 438.225V438.225Z" fill="#F1F1F1"/>
<path d="M426.088 435.481C425.754 435.652 425.474 435.914 425.282 436.237C425.09 436.559 424.992 436.93 425.001 437.305C425.009 437.681 425.123 438.046 425.33 438.36C425.536 438.674 425.827 438.923 426.169 439.079L436.565 443.825C436.717 443.897 436.854 443.997 436.968 444.121C437.078 444.247 437.16 444.395 437.21 444.554L441.247 457.337C441.372 457.757 441.634 458.124 441.991 458.377C442.349 458.631 442.781 458.756 443.219 458.734L443.235 458.734C443.671 458.723 444.09 458.566 444.426 458.29C444.762 458.013 444.996 457.631 445.091 457.206L446.636 450.796C446.689 450.584 446.799 450.391 446.953 450.237C447.107 450.082 447.3 449.973 447.511 449.92C447.666 449.879 447.828 449.87 447.987 449.895C448.145 449.919 448.297 449.976 448.433 450.062L467.368 461.746C467.642 461.916 467.953 462.017 468.274 462.04C468.595 462.063 468.917 462.007 469.212 461.878C469.506 461.749 469.765 461.551 469.967 461.302C470.169 461.052 470.308 460.757 470.372 460.443L480.214 411.524C480.289 411.155 480.258 410.773 480.126 410.421C479.993 410.07 479.764 409.762 479.464 409.535C479.164 409.308 478.807 409.17 478.432 409.137C478.058 409.104 477.681 409.177 477.347 409.348L476.689 409.683L426.088 435.481ZM426.499 438.354C426.294 438.26 426.119 438.11 425.996 437.921C425.872 437.733 425.804 437.513 425.799 437.288C425.794 437.062 425.853 436.84 425.969 436.647C426.085 436.453 426.253 436.296 426.453 436.193L477.039 410.404L477.712 410.061C477.913 409.959 478.138 409.916 478.362 409.936C478.586 409.956 478.8 410.039 478.979 410.175C479.158 410.311 479.296 410.495 479.376 410.705C479.456 410.915 479.476 411.144 479.432 411.364L469.59 460.283C469.551 460.472 469.468 460.649 469.347 460.799C469.225 460.949 469.069 461.067 468.892 461.144C468.716 461.221 468.523 461.254 468.33 461.24C468.138 461.226 467.952 461.166 467.787 461.065L448.852 449.381C448.666 449.263 448.461 449.179 448.246 449.13C447.938 449.059 447.617 449.064 447.312 449.145C447.268 449.155 447.225 449.169 447.181 449.182L447.177 449.183C446.855 449.288 446.564 449.475 446.334 449.724C446.104 449.974 445.941 450.278 445.861 450.608L444.316 457.022C444.26 457.278 444.119 457.508 443.916 457.674C443.713 457.839 443.46 457.932 443.198 457.936L443.19 457.936C442.927 457.951 442.667 457.877 442.452 457.724C442.238 457.572 442.081 457.351 442.009 457.098L437.972 444.315C437.93 444.179 437.874 444.049 437.804 443.926L437.803 443.922C437.736 443.804 437.657 443.693 437.566 443.592C437.479 443.493 437.382 443.403 437.275 443.324C437.157 443.236 437.029 443.161 436.894 443.1L426.499 438.354Z" fill="white"/>
<path d="M425.996 437.921C426.119 438.11 426.294 438.26 426.499 438.354L436.894 443.1C437.029 443.161 437.157 443.236 437.275 443.324C437.382 443.403 437.479 443.493 437.566 443.592L437.972 443.264L477.712 411.085V411.808L447.243 449.102L447.312 449.145C447.617 449.064 447.938 449.059 448.246 449.13C448.461 449.179 448.666 449.263 448.852 449.381L467.787 461.065C467.952 461.166 468.138 461.226 468.33 461.24C468.523 461.254 468.716 461.221 468.892 461.144C469.069 461.067 469.225 460.949 469.347 460.799C469.468 460.649 469.551 460.472 469.59 460.283L479.432 411.364C479.476 411.144 479.456 410.915 479.376 410.705C479.296 410.495 479.158 410.311 478.979 410.175C478.8 410.039 478.586 409.956 478.362 409.936C478.138 409.916 477.913 409.959 477.712 410.061L477.039 410.404L426.453 436.193C426.253 436.296 426.085 436.453 425.969 436.647C425.853 436.84 425.794 437.062 425.799 437.288C425.804 437.513 425.872 437.733 425.996 437.921Z" fill="white"/>
<path d="M437.315 443.194L477.131 410.679C477.166 410.65 477.204 410.624 477.244 410.602C477.406 410.511 477.596 410.479 477.779 410.513C477.963 410.547 478.128 410.643 478.248 410.786C478.368 410.929 478.434 411.11 478.435 411.296C478.435 411.483 478.371 411.664 478.253 411.808L448.286 449L447.758 449.657L447.137 449.155L447.217 449.052L447.221 449.052L477.629 411.306L437.843 443.791L437.843 443.795L437.669 443.935L437.164 443.316L437.315 443.194Z" fill="#E5E5E5"/>
</g>
<defs>
<clipPath id="clip0_305:2610">
<rect width="883.968" height="607.464" fill="white"/>
</clipPath>
</defs>
</svg>
