<svg width="120" height="120" viewBox="0 0 120 120" fill="none" xmlns="http://www.w3.org/2000/svg">
<g opacity="0.5">
<path opacity="0.5" d="M60 120C93.1371 120 120 93.1371 120 60C120 26.8629 93.1371 0 60 0C26.8629 0 0 26.8629 0 60C0 93.1371 26.8629 120 60 120Z" fill="url(#paint0_linear_305:1410)"/>
</g>
<path d="M60.1175 118.352C92.5557 118.352 118.852 92.0557 118.852 59.6175C118.852 27.1792 92.5557 0.882812 60.1175 0.882812C27.6792 0.882812 1.38281 27.1792 1.38281 59.6175C1.38281 92.0557 27.6792 118.352 60.1175 118.352Z" fill="#F5F5F5"/>
<path d="M60.1711 118.582C71.6479 118.601 82.8762 115.24 92.4559 108.92C90.2915 97.0919 82.0548 96.418 82.0548 96.418H36.6336C36.6336 96.418 28.8611 97.0558 26.4336 107.937C36.3102 114.884 48.0958 118.603 60.1711 118.582V118.582Z" fill="#00BFA6"/>
<path d="M59.5488 86.7265C75.2058 86.7265 87.8984 74.0339 87.8984 58.3769C87.8984 42.7199 75.2058 30.0273 59.5488 30.0273C43.8918 30.0273 31.1992 42.7199 31.1992 58.3769C31.1992 74.0339 43.8918 86.7265 59.5488 86.7265Z" fill="#333333"/>
<path opacity="0.1" d="M50.3984 81.9922H68.5635V96.5245C68.5635 98.9328 67.607 101.242 65.9045 102.946C64.2019 104.649 61.8926 105.606 59.4844 105.607V105.607C57.0756 105.607 54.7654 104.65 53.0621 102.947C51.3588 101.244 50.4019 98.9334 50.4019 96.5245V81.9922H50.3984Z" fill="black"/>
<path d="M50.9709 81.3164H67.991C68.1437 81.3164 68.2902 81.3771 68.3982 81.4851C68.5062 81.5931 68.5669 81.7396 68.5669 81.8923V95.8488C68.5672 97.042 68.3323 98.2235 67.8757 99.3258C67.4192 100.428 66.7499 101.43 65.9061 102.273C65.0623 103.117 64.0606 103.786 62.9581 104.242C61.8557 104.699 60.6741 104.933 59.481 104.933V104.933C57.0721 104.933 54.762 103.976 53.0586 102.273C51.3553 100.57 50.3984 98.2593 50.3984 95.8505V81.8923C50.3984 81.7402 50.4586 81.5942 50.5659 81.4863C50.6732 81.3784 50.8188 81.3173 50.9709 81.3164V81.3164Z" fill="#FDB797"/>
<path opacity="0.1" d="M50.4297 88.853C56.2841 91.0403 62.7284 91.058 68.5947 88.9029V86.668H50.4297V88.853Z" fill="black"/>
<path d="M59.5451 90.0667C73.925 90.0667 85.5823 78.4094 85.5823 64.0294C85.5823 49.6495 73.925 37.9922 59.5451 37.9922C45.1651 37.9922 33.5078 49.6495 33.5078 64.0294C33.5078 78.4094 45.1651 90.0667 59.5451 90.0667Z" fill="#FDB797"/>
<path opacity="0.1" d="M41.0039 40.3436C41.0039 40.3436 51.9775 62.6175 82.9317 49.6823L75.7248 38.382L62.9495 33.7969L41.0039 40.3436Z" fill="black"/>
<path d="M41.0039 40.0189C41.0039 40.0189 51.9775 62.2928 82.9317 49.3541L75.7248 38.0539L62.9495 33.4688L41.0039 40.0189Z" fill="#333333"/>
<path d="M40.9029 38.5103C41.6428 36.2199 42.9216 34.1404 44.6319 32.4467C49.7534 27.3837 58.1499 26.316 62.4565 20.543C63.488 22.1453 62.6903 24.6089 60.9092 25.2966C65.0353 25.269 69.8164 24.908 72.1493 21.5143C72.7259 22.8565 72.9097 24.3348 72.6793 25.7774C72.4489 27.2199 71.8138 28.5674 70.8479 29.6633C74.5046 29.8352 78.4124 32.3109 78.6428 35.9642C78.8009 38.3986 77.2674 40.7023 75.2748 42.0983C73.2823 43.4943 70.8548 44.1355 68.4737 44.6599C61.5213 46.1951 36.366 52.6198 40.9029 38.5103Z" fill="#333333"/>
<path d="M33.5005 68.5491C34.8383 68.5491 35.9228 66.5155 35.9228 64.007C35.9228 61.4984 34.8383 59.4648 33.5005 59.4648C32.1626 59.4648 31.0781 61.4984 31.0781 64.007C31.0781 66.5155 32.1626 68.5491 33.5005 68.5491Z" fill="#FDB797"/>
<path d="M85.5825 68.5491C86.9203 68.5491 88.0049 66.5155 88.0049 64.007C88.0049 61.4984 86.9203 59.4648 85.5825 59.4648C84.2447 59.4648 83.1602 61.4984 83.1602 64.007C83.1602 66.5155 84.2447 68.5491 85.5825 68.5491Z" fill="#FDB797"/>
<defs>
<linearGradient id="paint0_linear_305:1410" x1="60" y1="120" x2="60" y2="0" gradientUnits="userSpaceOnUse">
<stop stop-color="#808080" stop-opacity="0.25"/>
<stop offset="0.54" stop-color="#808080" stop-opacity="0.12"/>
<stop offset="1" stop-color="#808080" stop-opacity="0.1"/>
</linearGradient>
</defs>
</svg>
