<svg width="44" height="44" viewBox="0 0 44 44" fill="none" xmlns="http://www.w3.org/2000/svg">
<path d="M42 24C43.1046 24 44 23.1046 44 22C44 20.8954 43.1046 20 42 20L42 24ZM0.585785 20.5858C-0.195263 21.3668 -0.195263 22.6332 0.585785 23.4142L13.3137 36.1421C14.0948 36.9232 15.3611 36.9232 16.1421 36.1421C16.9232 35.3611 16.9232 34.0948 16.1421 33.3137L4.82843 22L16.1421 10.6863C16.9232 9.90524 16.9232 8.63891 16.1421 7.85786C15.3611 7.07681 14.0948 7.07681 13.3137 7.85786L0.585785 20.5858ZM42 20L2 20L2 24L42 24L42 20Z" fill="black"/>
</svg>
