<svg width="44" height="44" viewBox="0 0 44 44" fill="none" xmlns="http://www.w3.org/2000/svg">
<path fill-rule="evenodd" clip-rule="evenodd" d="M12.1781 19.4304C12.3649 19.1609 12.672 19 13 19H31C31.328 19 31.6351 19.1609 31.8219 19.4304C32.0087 19.7 32.0515 20.0441 31.9363 20.3512L28.9363 28.3512C28.79 28.7415 28.4168 29 28 29H16C15.5832 29 15.21 28.7415 15.0637 28.3512L12.0637 20.3512C11.9485 20.0441 11.9913 19.7 12.1781 19.4304ZM14.443 21L16.693 27H27.307L29.557 21H14.443Z" fill="black"/>
<path fill-rule="evenodd" clip-rule="evenodd" d="M20.6247 14.2192C21.056 14.5642 21.1259 15.1935 20.7809 15.6247L16.7809 20.6247C16.4359 21.056 15.8066 21.1259 15.3753 20.7809C14.944 20.4359 14.8741 19.8066 15.2191 19.3753L19.2191 14.3753C19.5641 13.9441 20.1934 13.8742 20.6247 14.2192Z" fill="black"/>
<path fill-rule="evenodd" clip-rule="evenodd" d="M23.3753 14.2192C22.944 14.5642 22.8741 15.1935 23.2191 15.6247L27.2191 20.6247C27.5641 21.056 28.1934 21.1259 28.6247 20.7809C29.056 20.4359 29.1259 19.8066 28.7809 19.3753L24.7809 14.3753C24.4359 13.9441 23.8066 13.8742 23.3753 14.2192Z" fill="black"/>
<path fill-rule="evenodd" clip-rule="evenodd" d="M18 22C18.5523 22 19 22.4477 19 23V25C19 25.5523 18.5523 26 18 26C17.4477 26 17 25.5523 17 25V23C17 22.4477 17.4477 22 18 22Z" fill="black"/>
<path fill-rule="evenodd" clip-rule="evenodd" d="M26 22C26.5523 22 27 22.4477 27 23V25C27 25.5523 26.5523 26 26 26C25.4477 26 25 25.5523 25 25V23C25 22.4477 25.4477 22 26 22Z" fill="black"/>
<path fill-rule="evenodd" clip-rule="evenodd" d="M22 22C22.5523 22 23 22.4477 23 23V25C23 25.5523 22.5523 26 22 26C21.4477 26 21 25.5523 21 25V23C21 22.4477 21.4477 22 22 22Z" fill="black"/>
</svg>
