<svg width="44" height="44" viewBox="0 0 44 44" fill="none" xmlns="http://www.w3.org/2000/svg">
<path d="M35 31C38.3137 31 41 28.3137 41 25C41 21.8482 38.5699 19.2641 35.4811 19.019C35.8171 18.0753 36 17.059 36 16C36 11.0294 31.9706 7 27 7C22.6636 7 19.0435 10.0669 18.1903 14.1499C17.3246 13.4318 16.2127 13 15 13C12.2386 13 10 15.2386 10 18C10 18.3428 10.0345 18.6775 10.1002 19.0008C10.0669 19.0003 10.0335 19 10 19C6.68629 19 4 21.6863 4 25C4 28.3137 6.68629 31 10 31C10.2226 31 10.4445 31.0023 10.6649 31.0045C11.1006 31.0089 11.5299 31.0133 11.9444 31M23 22V37M23 37L27 34M23 37L19 34.5" stroke="black" stroke-width="2" stroke-linecap="round"/>
</svg>
