<svg width="44" height="44" viewBox="0 0 44 44" fill="none" xmlns="http://www.w3.org/2000/svg">
<path fill-rule="evenodd" clip-rule="evenodd" d="M1.67174 23.8894C0.776085 22.9937 0.776085 21.5415 1.67174 20.6458L14.6458 7.67176C15.5415 6.77608 16.9937 6.77608 17.8893 7.67176C18.577 8.35943 18.577 9.47439 17.8893 10.1621L7.40554 20.6458C6.50988 21.5415 6.50988 22.9937 7.40554 23.8894L17.8893 34.3731C18.577 35.0608 18.577 36.1758 17.8893 36.8635C16.9937 37.7591 15.5415 37.7591 14.6458 36.8635L1.67174 23.8894ZM42.3283 20.6459C43.2239 21.5415 43.2239 22.9937 42.3283 23.8894L29.3541 36.8635C28.4585 37.7591 27.0063 37.7591 26.1107 36.8635C25.423 36.1758 25.423 35.0608 26.1107 34.3732L36.5945 23.8894C37.4901 22.9937 37.4901 21.5415 36.5945 20.6459L26.1107 10.1621C25.423 9.4744 25.423 8.35945 26.1107 7.67177C27.0063 6.77609 28.4585 6.77609 29.3542 7.67177L42.3283 20.6459Z" fill="black"/>
</svg>
