<svg width="44" height="44" viewBox="0 0 44 44" fill="none" xmlns="http://www.w3.org/2000/svg">
<g clip-path="url(#clip0_104_57)">
<path d="M25.1384 8.38889L25.605 7.50439L25.1384 8.38889ZM29.7773 12L28.9666 12.5855L29.7773 12ZM19.4162 22.75L19.9996 23.5622L19.4162 22.75ZM13.4162 32.2222L12.4886 32.5958L13.4162 32.2222ZM23.9484 42.9785C24.4735 42.8073 24.7604 42.2428 24.5892 41.7178L21.799 33.1612C21.6277 32.6361 21.0633 32.3493 20.5382 32.5205C20.0131 32.6917 19.7263 33.2562 19.8975 33.7812L22.3777 41.3871L14.7718 43.8672C14.2468 44.0385 13.9599 44.6029 14.1311 45.128C14.3023 45.6531 14.8668 45.9399 15.3919 45.7687L23.9484 42.9785ZM14.2228 3.93292C17.8439 5.33053 21.0852 7.38149 24.6719 9.27339L25.605 7.50439C22.2016 5.70922 18.7079 3.52024 14.9429 2.06708L14.2228 3.93292ZM24.6719 9.27339C26.2484 10.105 28.0269 11.2844 28.9666 12.5855L30.588 11.4145C29.3635 9.71911 27.2327 8.36296 25.605 7.50439L24.6719 9.27339ZM28.9666 12.5855C29.341 13.1039 29.487 13.5461 29.513 13.9211C29.5389 14.2959 29.4501 14.6804 29.2316 15.0922C28.7739 15.9549 27.801 16.836 26.4828 17.7113C25.187 18.5716 23.682 19.3475 22.2873 20.0502C20.9432 20.7273 19.6146 21.3762 18.8328 21.9378L19.9996 23.5622C20.6176 23.1182 21.7472 22.5618 23.1872 21.8363C24.5765 21.1363 26.1813 20.3121 27.589 19.3775C28.9741 18.4578 30.2982 17.3492 30.9983 16.0296C31.3588 15.3502 31.5643 14.5955 31.5082 13.7832C31.4521 12.9712 31.1398 12.1785 30.588 11.4145L28.9666 12.5855ZM18.8328 21.9378C17.3232 23.0222 15.2116 24.3499 13.7818 25.9737C13.0477 26.8074 12.4373 27.7744 12.1597 28.9011C11.8782 30.0437 11.9574 31.2769 12.4886 32.5958L14.3438 31.8486C13.9567 30.8875 13.9283 30.0828 14.1016 29.3796C14.2788 28.6604 14.6857 27.9736 15.2828 27.2954C16.5155 25.8955 18.3222 24.7671 19.9996 23.5622L18.8328 21.9378ZM12.4886 32.5958C14.3244 37.1536 19.1854 40.8865 23.1854 42.9193L24.0915 41.1363C20.2538 39.186 15.9113 35.7403 14.3438 31.8486L12.4886 32.5958Z" fill="black"/>
<circle cx="15" cy="3" r="2" fill="black"/>
</g>
<defs>
<clipPath id="clip0_104_57">
<rect width="44" height="44" fill="white"/>
</clipPath>
</defs>
</svg>
