<svg width="44" height="44" viewBox="0 0 44 44" fill="none" xmlns="http://www.w3.org/2000/svg">
<path fill-rule="evenodd" clip-rule="evenodd" d="M23.8415 3.66736C23.6203 1.44421 20.3797 1.44421 20.1585 3.66736C19.9774 5.48645 17.5491 5.96947 16.6857 4.35812C15.6306 2.38888 12.6367 3.62899 13.2831 5.76756C13.8119 7.51746 11.7533 8.89299 10.339 7.73471C8.61058 6.31915 6.31915 8.61057 7.73471 10.339C8.89299 11.7533 7.51746 13.8119 5.76756 13.2831C3.62899 12.6367 2.38888 15.6306 4.35813 16.6857C5.96947 17.5491 5.48644 19.9774 3.66736 20.1585C1.44421 20.3797 1.44421 23.6203 3.66736 23.8415C5.48645 24.0225 5.96947 26.4509 4.35812 27.3142C2.38888 28.3694 3.62899 31.3633 5.76757 30.7169C7.51746 30.188 8.89299 32.2467 7.73471 33.661C6.31915 35.3894 8.61058 37.6808 10.339 36.2653C11.7533 35.107 13.8119 36.4825 13.2831 38.2324C12.6367 40.371 15.6306 41.6111 16.6857 39.6419C17.5491 38.0305 19.9774 38.5135 20.1585 40.3326C20.3797 42.5558 23.6203 42.5558 23.8415 40.3326C24.0225 38.5135 26.4509 38.0305 27.3142 39.6419C28.3694 41.6111 31.3633 40.371 30.7169 38.2324C30.188 36.4825 32.2467 35.107 33.661 36.2653C35.3894 37.6808 37.6808 35.3894 36.2653 33.661C35.107 32.2467 36.4825 30.188 38.2324 30.7169C40.371 31.3633 41.6111 28.3694 39.6419 27.3142C38.0305 26.4509 38.5135 24.0225 40.3326 23.8415C42.5558 23.6203 42.5558 20.3797 40.3326 20.1585C38.5135 19.9774 38.0305 17.5491 39.6419 16.6857C41.6111 15.6306 40.371 12.6367 38.2324 13.2831C36.4825 13.8119 35.107 11.7533 36.2653 10.339C37.6808 8.61058 35.3894 6.31915 33.661 7.73471C32.2467 8.89299 30.188 7.51746 30.7169 5.76757C31.3633 3.62899 28.3694 2.38888 27.3142 4.35813C26.4509 5.96947 24.0225 5.48644 23.8415 3.66736ZM22 33.0512C28.1034 33.0512 33.0512 28.1034 33.0512 22C33.0512 15.8966 28.1034 10.9488 22 10.9488C15.8966 10.9488 10.9488 15.8966 10.9488 22C10.9488 28.1034 15.8966 33.0512 22 33.0512Z" fill="black"/>
</svg>
