<svg width="50" height="50" viewBox="0 0 50 50" fill="none" xmlns="http://www.w3.org/2000/svg">
<path fill-rule="evenodd" clip-rule="evenodd" d="M31.8845 30.1931C35.6353 28.0708 38.3097 24.2677 38.8845 19.8069C43.1327 22.2107 46 26.7705 46 32C46 39.732 39.732 46 32 46C29.45 46 27.0592 45.3182 25 44.127C29.1846 41.7064 32 37.182 32 32C32 31.3877 31.9607 30.7847 31.8845 30.1931ZM18.1155 30.1931C18.0393 30.7847 18 31.3877 18 32C18 37.182 20.8154 41.7064 25 44.127C22.9408 45.3182 20.55 46 18 46C10.268 46 4 39.732 4 32C4 26.7705 6.86729 22.2107 11.1155 19.8069C11.6903 24.2677 14.3647 28.0708 18.1155 30.1931ZM25 19.873C21.3098 22.0076 18.6844 25.7783 18.1155 30.1931C20.1484 31.3434 22.4975 32 25 32C27.5025 32 29.8516 31.3434 31.8845 30.1931C31.3156 25.7783 28.6902 22.0076 25 19.873ZM25 19.873C22.9408 18.6818 20.55 18 18 18C15.4975 18 13.1484 18.6566 11.1155 19.8069C11.0393 19.2153 11 18.6123 11 18C11 10.268 17.268 4 25 4C32.732 4 39 10.268 39 18C39 18.6123 38.9607 19.2153 38.8845 19.8069C36.8516 18.6566 34.5025 18 32 18C29.45 18 27.0592 18.6818 25 19.873ZM21.1584 29.9H20.3832L22.5652 23.9814H23.2953L25.4773 29.9H24.7021L24.1074 28.2061H21.7531L21.1584 29.9ZM22.9631 24.9371H22.8974L21.9705 27.5785H23.89L22.9631 24.9371ZM28.9349 29.2479C28.656 29.7195 28.1926 29.9779 27.5978 29.9779C26.757 29.9779 26.1213 29.4693 26.1213 28.6654V28.6572C26.1213 27.8697 26.7037 27.4145 27.7332 27.3529L29.0006 27.275V26.873C29.0006 26.3275 28.6683 26.0322 28.008 26.0322C27.4789 26.0322 27.1302 26.2291 27.0154 26.5736L27.0113 26.5859H26.2976L26.3017 26.5613C26.4166 25.8682 27.0892 25.4006 28.0326 25.4006C29.1113 25.4006 29.7142 25.9543 29.7142 26.873V29.9H29.0006V29.2479H28.9349ZM26.8513 28.6408V28.649C26.8513 29.0961 27.2328 29.3586 27.7455 29.3586C28.4715 29.3586 29.0006 28.8828 29.0006 28.2512V27.8492L27.8193 27.923C27.1467 27.9641 26.8513 28.202 26.8513 28.6408Z" fill="black"/>
</svg>
