<svg width="50" height="50" viewBox="0 0 50 50" fill="none" xmlns="http://www.w3.org/2000/svg">
<path fill-rule="evenodd" clip-rule="evenodd" d="M34.1927 36.6066C34.5832 36.9971 35.2164 36.9971 35.6069 36.6066C35.9974 36.2161 35.9974 35.5829 35.6069 35.1924L26.4145 26L35.6069 16.8076C35.9974 16.4171 35.9974 15.7839 35.6069 15.3934C35.2164 15.0029 34.5832 15.0029 34.1927 15.3934L25.0003 24.5858L15.8079 15.3934C15.4174 15.0029 14.7842 15.0029 14.3937 15.3934C14.0032 15.7839 14.0032 16.4171 14.3937 16.8076L23.5861 26L14.3937 35.1924C14.0032 35.5829 14.0032 36.2161 14.3937 36.6066C14.7842 36.9971 15.4174 36.9971 15.8079 36.6066L25.0003 27.4142L34.1927 36.6066Z" fill="black"/>
</svg>
