<svg width="44" height="44" viewBox="0 0 44 44" fill="none" xmlns="http://www.w3.org/2000/svg">
<g clip-path="url(#clip0_104_56)">
<path d="M8.86668 13.6333L22.5 9.21615e-07L36.1333 13.6333L22.5 27.2666L8.86668 13.6333Z" fill="#ED2C27"/>
<path d="M22.5 27.2666L8.86668 13.6333V30.3667L22.5 43.863L22.5 27.2666Z" fill="#ED2C27"/>
<path d="M36.1333 13.6333L22.5 27.2666L22.5 43.863L36.1333 30.3667L36.1333 13.6333Z" fill="#ED2C27"/>
<path d="M36.1333 13.6333L22.5 27.2666L22.5 43.863L36.1333 30.3667L36.1333 13.6333Z" fill="#ED2C27"/>
<path d="M8.86668 13.6333L22.5 9.21615e-07L36.1333 13.6333L22.5 27.2666L8.86668 13.6333Z" fill="#ED2C27"/>
<path d="M22.5 27.2666L8.86668 13.6333L8.86668 30.3667L22.5 43.863L22.5 27.2666Z" fill="#E84541"/>
<path d="M8.86621 13.6333L22.4995 1.15454e-05L36.1329 13.6333L22.4995 27.2667L8.86621 13.6333Z" fill="#F87C68"/>
<path d="M8.86621 13.6333L22.4995 1.15454e-05L36.1329 13.6333L22.4995 27.2667L8.86621 13.6333Z" fill="#F87C68"/>
<path d="M36.1327 13.6333L22.4993 27.2667V43.863L36.1327 30.3667L36.1327 13.6333Z" fill="#ED2C27"/>
<path d="M36.1327 13.6333L22.4993 27.2667V43.863L36.1327 30.3667L36.1327 13.6333Z" fill="#ED2C27"/>
</g>
<defs>
<clipPath id="clip0_104_56">
<rect width="44" height="44" fill="white"/>
</clipPath>
</defs>
</svg>
